<?xml version="1.0" standalone="no"?>
<!DOCTYPE svg PUBLIC "-//W3C//DTD SVG 20010904//EN"
 "http://www.w3.org/TR/2001/REC-SVG-20010904/DTD/svg10.dtd">
<svg version="1.0" xmlns="http://www.w3.org/2000/svg"
 width="4193.000000pt" height="1647.000000pt" viewBox="0 0 4193.000000 1647.000000"
 preserveAspectRatio="xMidYMid meet">

<g transform="translate(0.000000,1647.000000) scale(0.100000,-0.100000)"
fill="#000000" stroke="none">
<path d="M7224 13468 c-17 -13 -163 -141 -325 -285 -194 -173 -301 -275 -312
-298 -16 -33 -17 -103 -17 -790 l0 -755 -32 0 c-29 0 -43 12 -110 90 -197 227
-466 410 -735 499 -411 136 -978 114 -1418 -54 -371 -142 -699 -412 -904 -743
-119 -191 -205 -394 -261 -617 -71 -281 -96 -572 -79 -914 34 -701 234 -1228
613 -1620 314 -324 676 -495 1165 -552 67 -7 182 -10 320 -6 180 4 237 10 338
31 454 96 823 328 1048 659 50 75 63 87 87 87 28 0 28 -1 28 -62 1 -35 5 -187
10 -338 8 -244 10 -276 26 -287 28 -20 717 -19 734 1 9 11 9 70 1 253 -7 156
-11 1172 -11 2936 0 2416 -2 2702 -15 2732 -28 57 -98 72 -151 33z m-1692
-2057 c266 -57 476 -169 652 -345 185 -186 296 -408 349 -701 21 -114 22 -148
22 -680 0 -501 -2 -570 -19 -660 -48 -260 -137 -442 -301 -613 -108 -114 -188
-172 -330 -242 -202 -100 -373 -139 -645 -147 -269 -8 -468 32 -657 132 -385
203 -629 609 -720 1195 -26 168 -26 676 0 840 66 410 203 700 440 926 175 169
376 266 637 309 126 21 444 13 572 -14z"/>
<path d="M29135 13478 c-45 -26 -637 -562 -653 -591 -16 -29 -17 -94 -20 -789
l-2 -758 -28 0 c-22 0 -44 18 -110 93 -382 433 -891 627 -1516 578 -341 -27
-618 -106 -871 -247 -556 -311 -895 -852 -991 -1580 -24 -181 -24 -614 -1
-814 74 -614 278 -1073 635 -1428 207 -206 490 -368 780 -448 184 -50 293 -65
537 -71 320 -7 504 20 754 114 341 127 590 319 780 601 35 53 46 62 71 62 l30
0 1 -167 c0 -260 14 -500 29 -518 11 -13 60 -15 364 -15 266 0 356 3 369 12
16 12 16 27 6 183 -8 116 -13 1047 -16 2954 l-5 2784 -28 29 c-31 30 -78 37
-115 16z m-1730 -2062 c278 -52 505 -173 695 -372 169 -177 264 -363 322 -633
20 -90 22 -135 25 -675 5 -651 1 -711 -63 -904 -61 -186 -157 -337 -299 -470
-230 -215 -529 -326 -911 -339 -270 -9 -453 25 -649 122 -133 66 -217 128
-323 240 -298 315 -444 768 -445 1385 -1 397 55 689 183 957 184 387 506 633
910 697 124 20 428 15 555 -8z"/>
<path d="M10375 12009 c-472 -33 -879 -167 -1219 -399 -489 -334 -789 -858
-878 -1535 -8 -63 -12 -201 -12 -370 1 -225 4 -294 23 -412 80 -526 279 -935
612 -1259 159 -154 305 -257 504 -357 355 -177 733 -257 1221 -257 237 0 371
10 557 41 921 154 1576 766 1761 1644 46 220 59 381 53 675 -5 301 -18 413
-77 645 -197 779 -783 1338 -1590 1519 -297 66 -627 89 -955 65z m585 -594
c613 -110 1034 -543 1165 -1199 68 -343 58 -793 -24 -1107 -138 -523 -468
-890 -931 -1037 -421 -133 -914 -101 -1280 83 -209 106 -404 287 -538 500
-117 188 -202 449 -244 750 -16 116 -16 502 0 625 70 535 285 924 647 1170
178 121 390 195 670 234 75 10 444 -3 535 -19z"/>
<path d="M15095 12010 c-143 -12 -337 -46 -444 -76 -474 -136 -801 -411 -909
-764 -84 -274 -36 -608 121 -840 192 -285 582 -512 1317 -765 770 -266 1006
-460 1003 -825 -3 -354 -275 -636 -703 -727 -116 -24 -375 -24 -515 1 -118 21
-305 81 -395 126 -104 52 -223 135 -308 215 -138 130 -145 129 -427 -49 -176
-110 -210 -136 -213 -157 -2 -19 13 -48 56 -105 237 -318 699 -547 1230 -609
147 -17 472 -20 623 -5 653 65 1150 361 1365 815 114 240 143 569 74 841 -24
95 -95 245 -154 328 -191 267 -547 476 -1211 711 -396 140 -677 264 -827 364
-232 156 -312 383 -211 600 41 88 148 187 263 244 173 85 328 113 574 104 338
-12 574 -107 801 -321 76 -72 118 -91 173 -82 40 6 427 258 437 284 9 23 -58
114 -156 212 -239 239 -590 405 -979 464 -128 20 -436 28 -585 16z"/>
<path d="M32271 12010 c-363 -29 -664 -106 -946 -244 -434 -213 -728 -507
-936 -941 -101 -209 -163 -420 -206 -695 -28 -180 -25 -665 5 -855 57 -360
170 -659 350 -930 354 -531 930 -846 1674 -916 189 -17 626 -7 796 20 450 69
805 216 1112 461 96 77 263 245 331 335 180 235 317 531 383 827 51 229 60
331 60 648 0 333 -15 464 -79 716 -204 796 -822 1362 -1663 1524 -247 48 -630
69 -881 50z m509 -584 c343 -46 616 -177 835 -401 233 -238 369 -537 432 -945
22 -144 25 -546 5 -690 -43 -312 -135 -572 -274 -782 -76 -114 -254 -296 -358
-365 -232 -155 -496 -235 -820 -249 -372 -17 -725 78 -982 263 -112 81 -264
242 -344 364 -188 286 -284 656 -284 1093 0 839 356 1433 987 1644 83 28 256
66 343 75 91 10 366 5 460 -7z"/>
<path d="M37055 12014 c-532 -41 -901 -182 -1166 -444 -133 -132 -215 -268
-261 -435 -18 -67 -22 -108 -22 -255 -1 -153 2 -186 22 -259 48 -177 125 -307
266 -447 211 -210 582 -402 1156 -599 479 -165 714 -281 860 -425 120 -119
170 -238 170 -402 0 -212 -93 -397 -271 -540 -240 -192 -596 -261 -973 -188
-270 52 -495 164 -677 337 -91 85 -128 103 -186 88 -42 -10 -451 -267 -458
-287 -4 -11 7 -38 29 -71 209 -314 622 -543 1153 -639 115 -21 158 -23 433
-23 340 0 429 10 665 70 308 79 554 213 756 415 245 243 349 499 349 861 0
335 -85 552 -300 769 -217 219 -529 385 -1106 588 -369 130 -667 261 -811 356
-80 53 -183 157 -213 216 -28 55 -50 145 -50 205 1 227 196 422 505 501 138
36 380 44 540 19 258 -40 442 -128 620 -296 87 -82 134 -105 190 -95 19 4 121
64 232 137 157 104 199 136 201 155 4 32 -68 123 -186 235 -232 221 -576 377
-952 434 -103 15 -415 27 -515 19z"/>
<path d="M18397 11966 c-48 -18 -83 -49 -110 -101 -21 -38 -22 -53 -22 -295 0
-242 1 -257 22 -295 15 -29 253 -242 866 -775 727 -632 846 -739 846 -762 1
-24 -102 -116 -836 -753 -592 -512 -847 -738 -868 -772 l-30 -46 -3 -223 c-4
-274 3 -318 61 -379 40 -41 92 -65 141 -65 68 0 93 20 1204 984 1038 902 1108
965 1137 1020 l30 60 0 175 c0 171 -1 177 -27 226 -14 28 -46 69 -70 91 -100
96 -2153 1878 -2182 1895 -44 26 -112 32 -159 15z"/>
<path d="M23375 11970 c-16 -6 -51 -27 -76 -47 -26 -21 -527 -456 -1113 -968
-1254 -1093 -1131 -961 -1131 -1210 0 -175 13 -227 75 -297 47 -54 2180 -1907
2218 -1927 15 -8 52 -15 82 -15 70 -1 125 27 165 83 l30 43 3 261 c3 256 2
263 -20 307 -19 37 -176 177 -863 773 -757 657 -840 731 -843 760 -3 31 23 55
749 687 977 850 938 815 960 864 16 36 19 69 19 287 0 244 0 245 -26 297 -41
83 -145 128 -229 102z"/>
<path d="M8618 4846 c-478 -85 -754 -447 -735 -966 6 -158 26 -264 72 -377 84
-207 250 -372 455 -451 129 -50 175 -57 385 -57 232 0 318 16 462 85 45 22 86
40 90 40 5 0 20 -24 34 -52 l24 -53 70 0 70 0 0 460 0 460 -382 3 -383 2 0
-75 0 -75 264 0 c231 0 265 -2 270 -16 10 -26 7 -454 -4 -474 -28 -53 -221
-130 -375 -151 -389 -51 -687 138 -787 497 -19 68 -22 105 -22 274 -1 175 1
203 22 275 41 142 86 221 176 310 91 91 162 132 281 167 106 30 332 32 440 4
99 -25 223 -87 282 -140 28 -26 57 -46 65 -46 7 0 36 22 63 50 47 48 48 50 34
76 -20 39 -112 109 -196 150 -125 61 -244 85 -433 90 -110 2 -190 -1 -242 -10z"/>
<path d="M18765 4854 c-357 -56 -596 -255 -698 -579 -38 -121 -51 -243 -44
-413 9 -227 60 -391 171 -546 112 -158 300 -272 511 -311 138 -26 380 -17 498
19 316 95 518 328 583 672 13 70 15 127 11 269 -5 210 -22 288 -91 430 -84
175 -195 289 -361 371 -134 66 -221 85 -400 89 -82 2 -163 1 -180 -1z m300
-169 c98 -20 220 -83 286 -147 151 -145 221 -340 222 -613 1 -264 -66 -458
-208 -601 -119 -120 -264 -177 -450 -176 -195 0 -323 50 -451 177 -86 85 -127
152 -170 277 -37 109 -47 202 -41 370 6 175 30 279 95 403 49 94 165 210 252
253 138 68 312 89 465 57z"/>
<path d="M28270 4850 c-240 -34 -475 -162 -598 -326 -122 -163 -176 -319 -189
-544 -11 -196 21 -358 104 -529 48 -100 65 -124 141 -201 183 -183 391 -260
707 -260 206 0 361 32 502 104 29 14 57 26 63 26 6 0 20 -23 32 -50 23 -57 36
-63 119 -58 l54 3 0 460 0 460 -395 0 -395 0 0 -70 0 -70 275 -5 275 -5 3
-239 c3 -276 9 -257 -102 -313 -141 -71 -367 -107 -531 -84 -295 41 -487 205
-570 486 -33 111 -45 337 -25 463 64 400 354 622 780 598 188 -10 363 -71 458
-160 27 -25 55 -46 63 -46 19 0 119 88 119 104 0 20 -68 85 -132 126 -73 48
-170 87 -278 112 -98 22 -373 33 -480 18z"/>
<path d="M10720 3920 l0 -910 110 0 110 0 2 403 3 402 179 3 c253 4 333 -21
408 -124 15 -22 95 -183 176 -359 l148 -320 117 -3 c109 -2 117 -1 117 16 0
10 -59 142 -131 293 -72 151 -147 307 -166 348 -42 87 -97 151 -153 176 -22
10 -40 23 -40 30 0 6 25 17 56 24 72 17 179 72 227 119 98 94 138 189 139 332
2 203 -70 327 -238 407 -137 65 -207 73 -661 73 l-403 0 0 -910z m805 735
c140 -30 237 -104 266 -202 19 -64 16 -164 -5 -237 -14 -47 -29 -70 -74 -116
-96 -96 -201 -119 -542 -120 -147 0 -209 3 -218 12 -9 9 -12 98 -12 338 0 180
3 330 7 333 3 4 119 7 257 7 183 0 270 -4 321 -15z"/>
<path d="M13163 4193 c3 -547 6 -648 20 -705 50 -205 149 -337 312 -418 117
-58 231 -80 417 -80 203 0 326 26 456 98 76 42 175 149 215 234 80 166 89 264
85 963 l-3 540 -112 3 -113 3 0 -575 c0 -354 -4 -604 -11 -651 -31 -228 -128
-364 -302 -426 -87 -30 -276 -38 -367 -15 -187 48 -289 148 -346 341 -16 54
-18 121 -21 693 l-4 632 -115 0 -115 0 4 -637z"/>
<path d="M15762 3923 l3 -908 113 -3 112 -3 0 338 c0 186 4 343 8 349 5 8 95
13 292 17 249 4 296 7 370 26 233 60 384 195 434 387 20 76 21 250 2 319 -51
192 -202 316 -443 364 -92 19 -137 21 -497 21 l-396 0 2 -907z m801 732 c142
-30 236 -94 284 -193 38 -81 45 -220 14 -321 -36 -119 -136 -208 -277 -247
-79 -22 -556 -33 -579 -14 -13 11 -15 67 -15 395 0 210 3 385 7 388 13 14 495
7 566 -8z"/>
<path d="M20925 4767 l-90 -62 0 -845 0 -845 110 0 110 0 0 905 c0 1052 16
948 -130 847z"/>
<path d="M22135 4818 c-3 -7 -4 -416 -3 -908 l3 -895 108 -3 107 -3 0 695 c0
382 3 701 6 710 3 9 12 16 19 16 7 0 145 -304 320 -702 169 -387 312 -706 319
-710 19 -13 144 -9 153 5 4 6 145 325 313 707 201 456 311 695 321 695 12 0
15 -101 19 -705 l5 -705 108 -3 107 -3 0 911 0 911 -141 -3 -141 -3 -328 -760
c-206 -480 -333 -761 -342 -763 -12 -2 -99 192 -343 763 l-329 765 -138 0
c-102 0 -140 -3 -143 -12z"/>
<path d="M25386 3935 c-197 -492 -355 -902 -352 -910 4 -12 27 -15 115 -15 96
0 112 2 120 18 5 10 41 103 80 207 39 104 77 193 84 197 6 4 199 8 428 8 322
0 419 -3 426 -12 5 -7 42 -101 82 -208 40 -107 78 -198 84 -202 7 -4 60 -8
120 -8 99 0 107 1 107 19 0 11 -159 419 -354 908 l-354 888 -114 3 -114 3
-358 -896z m661 151 c96 -257 171 -471 168 -476 -7 -12 -712 -14 -719 -2 -4 7
304 844 339 920 8 19 21 32 27 30 6 -2 90 -215 185 -472z"/>
<path d="M30380 3920 l0 -910 618 2 617 3 3 77 3 78 -503 2 -503 3 0 355 0
355 448 3 447 2 0 80 0 80 -447 2 -448 3 -3 307 -2 308 502 2 503 3 3 78 3 77
-621 0 -620 0 0 -910z"/>
<path d="M32752 3923 l3 -908 110 0 110 0 5 739 c4 545 8 740 17 743 6 2 244
-321 529 -719 284 -398 526 -733 538 -746 19 -21 26 -22 131 -20 l110 3 3 908
2 908 -112 -3 -113 -3 -3 -727 c-2 -632 -4 -728 -17 -728 -8 0 -249 328 -535
730 l-520 730 -130 0 -130 0 2 -907z"/>
</g>
</svg>
