<?xml version="1.0" standalone="no"?>
<!DOCTYPE svg PUBLIC "-//W3C//DTD SVG 20010904//EN"
 "http://www.w3.org/TR/2001/REC-SVG-20010904/DTD/svg10.dtd">
<svg version="1.0" xmlns="http://www.w3.org/2000/svg"
 width="4193.000000pt" height="1647.000000pt" viewBox="0 0 4193.000000 1647.000000"
 preserveAspectRatio="xMidYMid meet">

<g transform="translate(0.000000,1647.000000) scale(0.100000,-0.100000)"
fill="#e8edec" stroke="none">
<path d="M7224 13468 c-17 -13 -163 -141 -325 -285 -192 -171 -302 -276 -315
-300 -18 -36 -19 -68 -22 -790 l-2 -753 -28 0 c-21 1 -43 20 -105 91 -360 413
-819 604 -1407 585 -309 -9 -542 -57 -800 -163 -330 -135 -643 -398 -844 -709
-176 -274 -290 -614 -337 -1009 -20 -159 -17 -574 5 -755 63 -534 224 -952
495 -1283 95 -117 273 -280 388 -357 329 -221 690 -323 1138 -323 282 0 489
39 736 138 217 88 373 187 522 333 81 79 207 234 236 290 8 15 21 22 41 22
l30 0 0 -147 c1 -250 16 -521 30 -538 18 -22 721 -23 740 0 9 11 9 79 1 308
-7 192 -11 1217 -11 2940 0 2030 -3 2652 -12 2672 -25 55 -103 71 -154 33z
m-1701 -2058 c525 -103 885 -460 1000 -990 19 -88 21 -135 24 -675 3 -400 1
-609 -7 -673 -34 -277 -149 -512 -338 -694 -237 -228 -524 -338 -922 -355
-401 -17 -697 88 -945 332 -249 247 -395 579 -457 1045 -17 127 -17 616 0 735
61 428 184 713 411 948 183 190 423 308 703 346 120 16 406 6 531 -19z"/>
<path d="M29135 13478 c-11 -7 -160 -136 -331 -289 -252 -225 -314 -285 -328
-318 -14 -37 -16 -118 -16 -786 l0 -745 -28 0 c-22 0 -43 18 -110 93 -330 374
-739 565 -1252 584 -779 29 -1439 -297 -1809 -895 -227 -366 -341 -809 -341
-1333 0 -897 290 -1589 844 -2008 466 -353 1206 -466 1801 -274 369 119 637
309 843 600 55 77 71 93 93 93 l26 0 6 -326 c5 -273 8 -330 22 -350 l15 -24
359 0 c302 0 360 2 371 15 8 10 10 35 5 82 -3 37 -9 1365 -13 2951 l-7 2884
-33 29 c-35 31 -81 38 -117 17z m-1740 -2062 c280 -51 491 -159 681 -350 211
-210 329 -466 363 -784 15 -137 15 -1077 0 -1197 -35 -283 -142 -510 -328
-696 -231 -231 -533 -349 -936 -366 -411 -17 -730 102 -977 366 -169 179 -291
415 -363 696 -60 236 -70 333 -70 685 0 345 9 438 65 656 142 551 518 920
1010 993 41 6 86 13 100 15 56 10 370 -3 455 -18z"/>
<path d="M10385 12013 c-670 -46 -1249 -314 -1612 -746 -260 -311 -417 -678
-490 -1147 -25 -165 -25 -634 0 -805 61 -408 189 -738 400 -1035 78 -109 318
-349 427 -427 318 -226 694 -364 1141 -419 181 -23 575 -23 758 0 273 33 510
93 725 185 537 227 941 657 1130 1201 175 500 190 1150 40 1673 -209 728 -763
1250 -1529 1441 -278 70 -671 101 -990 79z m453 -584 c361 -39 640 -166 867
-394 246 -246 385 -552 447 -980 17 -120 17 -550 -1 -675 -92 -667 -418 -1111
-954 -1299 -329 -115 -805 -115 -1134 0 -452 158 -777 536 -902 1048 -46 186
-63 348 -64 581 0 221 11 337 48 526 109 547 452 961 928 1119 227 75 507 103
765 74z"/>
<path d="M15072 12010 c-205 -20 -442 -72 -588 -130 -534 -212 -806 -580 -781
-1059 29 -560 421 -895 1462 -1251 672 -230 929 -403 1001 -675 21 -75 18
-228 -6 -319 -51 -201 -198 -366 -424 -476 -175 -86 -391 -120 -622 -101 -355
31 -623 143 -857 360 -89 83 -127 101 -184 86 -39 -9 -441 -263 -453 -285 -25
-47 197 -294 364 -404 109 -72 317 -173 445 -215 364 -121 736 -155 1160 -105
440 52 811 216 1070 474 274 271 396 656 336 1054 -76 506 -434 818 -1290
1125 -796 286 -1039 420 -1138 628 -31 65 -32 73 -32 188 0 111 2 124 28 177
117 237 438 372 846 355 335 -14 574 -111 795 -321 75 -71 118 -92 174 -82 40
6 427 258 437 284 12 31 -111 182 -232 284 -238 200 -530 330 -878 389 -138
24 -478 34 -633 19z"/>
<path d="M32290 12013 c-795 -58 -1403 -385 -1773 -953 -139 -214 -251 -495
-307 -770 -62 -302 -69 -722 -19 -1040 94 -595 401 -1109 847 -1418 511 -354
1229 -492 1982 -382 493 72 906 265 1227 574 63 60 141 143 175 185 245 304
397 673 460 1121 9 63 13 197 13 400 -1 266 -4 322 -23 440 -54 328 -152 605
-298 841 -410 663 -1139 1017 -2073 1007 -91 -1 -186 -3 -211 -5z m560 -598
c503 -90 874 -387 1070 -856 133 -320 181 -786 124 -1204 -77 -564 -352 -988
-783 -1205 -346 -174 -869 -206 -1271 -78 -418 133 -743 467 -893 919 -36 108
-68 250 -89 404 -16 116 -16 521 0 645 67 507 268 884 601 1129 96 71 267 158
386 196 77 25 254 60 345 69 100 9 417 -3 510 -19z"/>
<path d="M37020 12013 c-371 -27 -699 -127 -940 -288 -233 -155 -377 -339
-446 -572 -37 -125 -45 -346 -16 -483 98 -473 488 -772 1432 -1095 604 -207
874 -367 973 -577 42 -88 57 -155 57 -251 -1 -359 -283 -651 -709 -734 -59
-11 -136 -16 -246 -16 -192 1 -339 24 -494 78 -197 69 -326 146 -470 280 -93
87 -130 105 -188 90 -43 -10 -452 -268 -459 -289 -9 -27 73 -141 170 -237 354
-349 970 -541 1610 -500 477 31 827 145 1119 365 97 73 241 224 302 316 221
336 254 834 80 1180 -112 222 -332 418 -655 583 -168 85 -325 150 -597 248
-831 296 -1070 452 -1115 723 -49 296 213 543 635 596 257 32 551 -12 750
-111 117 -59 179 -102 279 -196 91 -85 126 -102 187 -90 30 6 407 248 428 274
15 20 8 37 -43 103 -66 87 -225 233 -326 300 -245 161 -555 267 -877 300 -95
9 -332 11 -441 3z"/>
<path d="M18395 11966 c-57 -21 -111 -85 -125 -149 -8 -33 -11 -132 -8 -277 3
-207 5 -228 24 -265 16 -29 253 -241 867 -775 727 -631 846 -739 846 -762 1
-24 -102 -117 -847 -763 -607 -525 -854 -745 -868 -772 -17 -34 -19 -64 -22
-276 -4 -276 3 -312 68 -371 73 -65 172 -72 247 -16 21 15 524 450 1118 967
1265 1099 1138 965 1143 1215 5 194 -6 234 -82 313 -76 80 -2187 1916 -2216
1927 -43 17 -103 19 -145 4z"/>
<path d="M23366 11966 c-21 -8 -50 -25 -65 -39 -14 -13 -503 -439 -1086 -946
-583 -507 -1076 -942 -1097 -968 -51 -64 -68 -134 -68 -275 0 -146 22 -224 80
-290 61 -70 2185 -1911 2228 -1931 85 -41 201 2 249 92 22 43 23 51 23 295 0
283 -4 299 -76 367 -22 20 -401 350 -844 734 -721 624 -805 700 -808 728 -3
31 28 59 790 722 436 379 819 714 850 744 88 82 90 91 86 393 l-3 256 -30 43
c-52 73 -148 105 -229 75z"/>
<path d="M8613 4845 c-219 -40 -409 -146 -533 -298 -67 -81 -144 -239 -172
-352 -19 -77 -23 -116 -23 -275 0 -205 15 -289 76 -435 60 -146 188 -292 327
-374 264 -157 678 -170 969 -30 45 21 85 39 90 39 4 0 19 -24 33 -53 l25 -52
70 0 70 0 0 460 0 460 -379 3 c-297 2 -381 -1 -388 -10 -9 -15 -11 -99 -2
-122 5 -14 39 -16 270 -16 l264 0 -2 -252 -3 -253 -55 -33 c-124 -74 -251
-104 -435 -104 -226 0 -352 48 -491 187 -90 90 -138 175 -176 311 -19 69 -22
104 -22 274 0 170 3 205 22 274 37 134 86 221 177 311 138 139 264 187 495
188 163 1 259 -18 376 -73 44 -22 103 -59 131 -84 28 -26 57 -46 64 -46 20 1
109 88 109 106 0 22 -88 103 -153 143 -73 43 -199 86 -311 106 -107 18 -322
18 -423 0z"/>
<path d="M18710 4846 c-378 -80 -617 -336 -680 -727 -20 -125 -8 -382 23 -500
64 -245 214 -437 420 -538 244 -120 563 -130 819 -27 179 73 336 222 417 397
142 304 126 745 -35 1010 -112 184 -265 300 -481 365 -76 23 -110 27 -253 30
-113 2 -185 -1 -230 -10z m400 -171 c237 -72 393 -261 446 -541 26 -139 16
-389 -20 -509 -39 -130 -89 -218 -171 -300 -121 -121 -259 -175 -449 -175
-132 0 -218 20 -316 70 -152 80 -268 236 -322 435 -19 69 -22 106 -22 270 0
165 3 201 22 270 75 272 257 450 505 495 74 13 262 4 327 -15z"/>
<path d="M28235 4845 c-496 -93 -777 -461 -752 -985 15 -310 135 -550 353
-706 281 -201 771 -228 1101 -60 29 14 57 26 63 26 6 0 21 -25 35 -55 l24 -56
73 3 73 3 0 460 0 460 -395 0 -395 0 0 -70 0 -70 275 -5 275 -5 3 -242 2 -242
-32 -24 c-172 -129 -510 -170 -757 -92 -208 66 -361 237 -422 470 -27 103 -36
311 -19 426 52 360 265 570 618 610 110 13 257 2 367 -26 86 -22 195 -78 253
-130 27 -25 57 -45 65 -45 18 0 117 88 117 103 -1 36 -112 126 -215 173 -140
65 -245 86 -450 90 -131 2 -202 -1 -260 -11z"/>
<path d="M10723 4829 c-10 -10 -13 -204 -13 -900 0 -488 3 -894 6 -903 9 -24
219 -24 228 0 3 9 6 191 6 406 l0 390 203 -4 c211 -5 240 -10 308 -55 60 -39
95 -101 248 -432 l147 -316 116 -3 c87 -2 117 1 120 10 3 7 -70 170 -162 363
-175 366 -204 413 -286 461 -24 14 -44 29 -44 33 0 3 23 12 52 19 122 29 246
112 305 206 59 92 84 227 64 340 -36 208 -157 316 -416 373 -97 21 -863 31
-882 12z m788 -173 c141 -25 228 -83 269 -178 19 -45 22 -65 18 -152 -3 -84
-8 -109 -30 -151 -34 -65 -80 -108 -149 -139 -86 -40 -142 -46 -415 -46 l-254
0 0 340 0 340 243 0 c158 -1 268 -5 318 -14z"/>
<path d="M13173 4834 c-17 -7 -19 -1152 -2 -1271 32 -233 143 -404 321 -494
134 -68 345 -99 535 -80 381 39 588 233 632 596 7 56 11 308 11 661 0 477 -2
573 -14 583 -9 8 -48 11 -112 9 l-99 -3 -6 -620 c-5 -526 -8 -631 -22 -690
-59 -249 -228 -375 -502 -375 -219 0 -376 83 -454 239 -64 126 -64 124 -70
816 l-6 630 -100 2 c-55 1 -106 -1 -112 -3z"/>
<path d="M15767 4833 c-4 -3 -7 -415 -7 -915 l0 -908 115 0 c63 0 116 1 117 3
1 1 5 157 8 347 l5 345 285 6 c202 5 304 11 350 22 249 59 403 193 457 400 19
73 21 229 4 301 -54 227 -250 362 -571 396 -106 11 -753 14 -763 3z m788 -178
c146 -28 243 -93 295 -200 22 -44 25 -63 25 -170 0 -111 -2 -124 -29 -182 -31
-69 -98 -138 -164 -172 -84 -43 -151 -51 -424 -51 l-258 0 0 395 0 395 239 0
c169 0 262 -4 316 -15z"/>
<path d="M20933 4772 l-98 -67 0 -845 0 -845 110 0 110 0 3 906 c2 772 0 908
-12 912 -8 3 -58 -24 -113 -61z"/>
<path d="M22142 4832 c-10 -7 -12 -196 -10 -913 l3 -904 108 -3 c59 -1 108 -1
109 0 2 2 5 320 8 707 3 493 8 705 16 708 6 2 148 -311 320 -704 l310 -708 73
-3 c42 -2 79 2 84 7 6 6 149 325 317 708 197 448 312 698 321 698 12 0 15
-108 19 -705 l5 -705 104 -3 c77 -2 107 1 113 10 4 7 8 414 8 903 0 680 -3
894 -12 903 -8 8 -53 12 -135 12 -104 0 -126 -3 -139 -17 -9 -10 -162 -355
-339 -768 -189 -438 -329 -751 -337 -753 -10 -2 -110 221 -342 762 -184 430
-334 767 -343 770 -22 9 -246 7 -261 -2z"/>
<path d="M25753 4832 c-17 -11 -726 -1790 -719 -1807 7 -20 218 -22 233 -2 6
6 43 101 83 209 40 110 79 199 87 202 8 3 201 6 428 6 320 0 416 -3 422 -12 4
-7 42 -103 83 -213 l76 -200 116 -3 c88 -2 117 0 121 11 6 17 -706 1796 -724
1808 -17 10 -189 12 -206 1z m294 -746 c95 -257 171 -472 168 -477 -7 -11
-712 -13 -719 -1 -4 7 304 846 339 920 8 19 21 32 27 30 6 -2 90 -215 185
-472z"/>
<path d="M30380 4821 c-12 -24 -14 -1779 -2 -1799 7 -10 138 -12 623 -10 l614
3 3 74 c2 53 -1 77 -10 82 -7 5 -235 9 -506 9 l-492 0 2 353 3 352 448 3 447
2 0 79 c0 63 -3 80 -16 85 -9 3 -211 6 -450 6 l-434 0 0 305 0 305 503 2 502
3 0 80 0 80 -612 3 c-597 2 -612 2 -623 -17z"/>
<path d="M32762 4832 c-10 -7 -12 -196 -10 -913 l3 -904 110 0 110 0 5 739 c4
533 8 740 16 743 6 2 248 -327 538 -730 289 -404 532 -740 540 -746 9 -8 51
-11 122 -9 l109 3 3 904 c2 717 0 906 -10 913 -15 9 -179 11 -202 2 -14 -6
-16 -80 -16 -735 0 -618 -2 -729 -14 -729 -8 0 -242 321 -522 713 -279 391
-517 722 -528 735 -18 20 -28 22 -130 22 -61 0 -117 -4 -124 -8z"/>
</g>
</svg>
