<svg xmlns="http://www.w3.org/2000/svg" width="255" height="53.229" viewBox="0 0 255 53.229">
  <g id="Group_2" data-name="Group 2" transform="translate(-149 -40)">
    <g id="logo" transform="translate(149 40)">
      <path id="Fill_1" data-name="Fill 1" d="M0,53H199V0H0Z" transform="translate(56)" fill=""></path>
      <path id="Fill_2" data-name="Fill 2" d="M11.4,21H6.463L0,0H4.513L8.944,14.763H9L13.485,0H18Z" transform="translate(64 15)" fill="#fff"></path>
      <path id="Fill_3" data-name="Fill 3" d="M4,21H0V5.793H4V21ZM4,3.441H0V0H4V3.44Z" transform="translate(83 15)" fill="#fff"></path>
      <g id="Group_68" data-name="Group 68">
        <path id="Fill_4" data-name="Fill 4" d="M10.376,5.6A2.691,2.691,0,0,0,7.415,3.055C4.849,3.055,4,5.684,4,7.85c0,2.144.818,4.655,3.327,4.655a3.061,3.061,0,0,0,3.186-3h3.862c-.535,3.912-3.157,6.052-7.019,6.052C2.961,15.559,0,12.419,0,8,0,3.4,2.708,0,7.443,0c3.439,0,6.628,1.828,6.852,5.6Z" transform="translate(90.535 20.729)" fill="#fff"></path>
        <path id="Fill_6" data-name="Fill 6" d="M7.442,15.558A7.237,7.237,0,0,1,2,13.39,7.979,7.979,0,0,1,0,7.8,8.055,8.055,0,0,1,2.062,2.237,7.262,7.262,0,0,1,7.442,0a6.638,6.638,0,0,1,5,2.054,8.919,8.919,0,0,1,2.082,6.712H4a4.151,4.151,0,0,0,.987,2.843,3.449,3.449,0,0,0,2.593.9c1.268,0,2.841-.768,3.159-1.912h3.524a7.106,7.106,0,0,1-2.6,3.8A7.256,7.256,0,0,1,7.442,15.558ZM7.33,3.055A3.1,3.1,0,0,0,4.725,4.2,3.793,3.793,0,0,0,4,6.2h6.512C10.124,4,9.171,3.055,7.33,3.055Z" transform="translate(106.465 20.729)" fill="#fff"></path>
        <path id="Fill_8" data-name="Fill 8" d="M0,.4H3.807V2.455h.085A5.117,5.117,0,0,1,8.347,0c4.258,0,5.328,2.428,5.328,6.083v9.078h-4V6.826C9.671,4.4,9,3.2,7.107,3.2,4.935,3.2,4,4.428,4,7.424v7.737H0Z" transform="translate(123.351 20.729)" fill="#fff"></path>
        <path id="Fill_10" data-name="Fill 10" d="M6.429,4.423H9.361V7.137H6.429v7.3c0,1.371.34,1.715,1.689,1.715a5.554,5.554,0,0,0,1.243-.115V19.21a15.021,15.021,0,0,1-2.339.143c-2.48,0-4.6-.544-4.6-3.511V7.137H0V4.423H2.426V0h4Z" transform="translate(138.716 16.707)" fill="#fff"></path>
        <path id="Fill_12" data-name="Fill 12" d="M7.444,15.558A7.239,7.239,0,0,1,2,13.39,7.978,7.978,0,0,1,0,7.8,8.054,8.054,0,0,1,2.062,2.237,7.264,7.264,0,0,1,7.444,0a6.637,6.637,0,0,1,5,2.054,8.915,8.915,0,0,1,2.079,6.712H4a4.15,4.15,0,0,0,.987,2.843,3.451,3.451,0,0,0,2.594.9c1.267,0,2.838-.768,3.157-1.912h3.527a7.108,7.108,0,0,1-2.6,3.8A7.256,7.256,0,0,1,7.444,15.558Zm-.112-12.5A3.1,3.1,0,0,0,4.725,4.2,3.791,3.791,0,0,0,4,6.2h6.513C10.125,4,9.172,3.055,7.331,3.055Z" transform="translate(149.288 20.729)" fill="#fff"></path>
        <path id="Fill_14" data-name="Fill 14" d="M0,0H14.155V3.767H4.426V8.479h8.43v3.482H4.426v8.422H0Z" transform="translate(167.162 15.506)" fill="#fff"></path>
        <path id="Fill_16" data-name="Fill 16" d="M7.443,15.558A7.238,7.238,0,0,1,2,13.39,7.978,7.978,0,0,1,0,7.8,8.055,8.055,0,0,1,2.061,2.237,7.263,7.263,0,0,1,7.443,0a6.638,6.638,0,0,1,5,2.054A8.915,8.915,0,0,1,14.52,8.766H4a4.152,4.152,0,0,0,.987,2.843,3.449,3.449,0,0,0,2.594.9c1.268,0,2.839-.768,3.157-1.912h3.525a7.109,7.109,0,0,1-2.6,3.8A7.254,7.254,0,0,1,7.443,15.558Zm-.112-12.5A3.1,3.1,0,0,0,4.725,4.2,3.779,3.779,0,0,0,4,6.2h6.513C10.124,4,9.171,3.055,7.331,3.055Z" transform="translate(181.625 20.729)" fill="#fff"></path>
        <path id="Fill_18" data-name="Fill 18" d="M0,.4H3.8v2.74h.058A5.123,5.123,0,0,1,8.516,0a2.952,2.952,0,0,1,.875.145V3.912a7.33,7.33,0,0,0-1.44-.141C4.99,3.771,4,5.884,4,8.507v6.654H0Z" transform="translate(198.512 20.729)" fill="#fff"></path>
        <path id="Fill_20" data-name="Fill 20" d="M0,.4H3.806v2.74h.058A5.125,5.125,0,0,1,8.515,0a2.906,2.906,0,0,1,.874.145V3.912a7.29,7.29,0,0,0-1.436-.141c-2.962,0-3.946,2.113-3.946,4.736v6.654H0Z" transform="translate(209.477 20.729)" fill="#fff"></path>
        <path id="Fill_22" data-name="Fill 22" d="M7.442,15.558A7.237,7.237,0,0,1,2,13.39,7.979,7.979,0,0,1,0,7.8,8.056,8.056,0,0,1,2.061,2.237,7.262,7.262,0,0,1,7.442,0a6.639,6.639,0,0,1,5,2.056,8.911,8.911,0,0,1,2.079,6.71H4a4.159,4.159,0,0,0,.988,2.843,3.451,3.451,0,0,0,2.595.9c1.268,0,2.839-.768,3.157-1.912h3.525a7.1,7.1,0,0,1-2.6,3.8A7.259,7.259,0,0,1,7.442,15.558Zm-.113-12.5A3.1,3.1,0,0,0,4.724,4.2,3.8,3.8,0,0,0,4,6.2h6.515C10.124,4,9.171,3.055,7.329,3.055Z" transform="translate(219.741 20.729)" fill="#fff"></path>
        <path id="Fill_24" data-name="Fill 24" d="M0,.4H3.806v2.74h.055A5.126,5.126,0,0,1,8.515,0a2.941,2.941,0,0,1,.876.145V3.912a7.332,7.332,0,0,0-1.439-.141C4.993,3.771,4,5.884,4,8.507v6.654H0Z" transform="translate(236.627 20.729)" fill=""></path>
        <path id="Fill_26" data-name="Fill 26" d="M0,52.923H52.12V0H0Z" transform="translate(0 0.306)" fill="#fff"></path>
        <path id="Fill_28" data-name="Fill 28" d="M.1,0C0,.024-.021.123.021.243" transform="translate(10.6 33.947)" fill=""></path>
        <path id="Fill_29" data-name="Fill 29" d="M.027.444A.375.375,0,0,1,.036.137C.061.09.164.063.218.006s.065.3.065.3H.287C.3.288.316.255.319.344s-.291.1-.291.1" transform="translate(10.466 33.809)" fill="#fff"></path>
        <path id="Fill_30" data-name="Fill 30" d="M.1,0C0,.022-.018.124.018.243" transform="translate(19.201 45.933)" fill="#fff"></path>
        <path id="Fill_31" data-name="Fill 31" d="M.037.583A.414.414,0,0,1,.054.2C.113.11.213-.056.336.019a.4.4,0,0,1,.115.43C.4.569.037.583.037.583" transform="translate(18.931 45.649)" fill="#fff"></path>
        <path id="Fill_32" data-name="Fill 32" d="M.32.052C.056-.193-.175.5.186.513.412.526.453.052.278.026" transform="translate(13.129 19.006)" fill="#fff"></path>
        <path id="Fill_33" data-name="Fill 33" d="M.1,0,.02.237C-.02.12,0,.021.1,0" transform="translate(39.329 20.16)" fill="#fff"></path>
        <path id="Fill_34" data-name="Fill 34" d="M.015.11C.02.105.046.064.043.082c.013-.109.185-.11.17,0,0,0,0,.01,0,.017A.087.087,0,0,1,.23.123C.247.164.266.2.24.244A.088.088,0,0,1,.124.277.077.077,0,0,1,.1.256.091.091,0,0,1,0,.191.1.1,0,0,1,.015.11" transform="translate(13.616 33.781)" fill="#fff"></path>
        <path id="Fill_35" data-name="Fill 35" d="M0,.051C.1-.016.2-.024.247.07Z" transform="translate(12.317 42.855)" fill=""></path>
             <path id="Fill_24" data-name="Fill 24" d="M0,.4H3.806v2.74h.055A5.126,5.126,0,0,1,8.515,0a2.941,2.941,0,0,1,.876.145V3.912a7.332,7.332,0,0,0-1.439-.141C4.993,3.771,4,5.884,4,8.507v6.654H0Z" transform="translate(236.627 20.729)" fill=""></path>
        <path id="Fill_36" data-name="Fill 36" d="M52.125,52.92H0V26.354l6.764-1.606v.008c.047.315.491,3.091,1.665,3.587.051-.155.1-.278.14-.377l.006-.015.005-.012,0-.011.01-.023,0-.007.005-.013.006-.014a.408.408,0,0,0,.036-.092v-.01c.007-.1.02-.266.035-.444-.01-.138-.035-.311-.1-.353a2.528,2.528,0,0,1-.248-.226l-.012-.011-.01-.01,0,0,0,0,0,0,0,0,0,0,0,0,0,0,0,0,0,0a2.387,2.387,0,0,0-.338-.3.134.134,0,0,1-.059-.085.142.142,0,0,1,.022-.105.133.133,0,0,1,.114-.063.135.135,0,0,1,.074.023,4.4,4.4,0,0,0,1.019.44l.036,0c.153.014.285.021.416.021a.749.749,0,0,0,.453-.094l.045-.037.005,0,.005,0,.005,0,.005,0c.146-.119.39-.318.512-.318.048,0,.074.029.079.087a.649.649,0,0,1-.337.731c-.229.146-.31.618-.31.977,0,.122.065.182.2.182a1.064,1.064,0,0,0,.241-.039l.005,0,.008,0,.049-.011.021,0c.06-.015.081-.064.1-.115a.3.3,0,0,1,.309-.237c.068,0,.118.053.141.15a.485.485,0,0,1-.2.526c-.216.113-.222.183-.23.272a.39.39,0,0,1-.056.181.968.968,0,0,0-.07.852l0,.007,0,.007,0,.007,0,.005,0,.011,0,.005,0,.007,0,.007,0,.01a.711.711,0,0,1,.027.187,9.165,9.165,0,0,1-.125,1.181l0,.022-.017.122-.008.059,0,.022,0,.019,0,.016,0,.014,0,.032c0,.017,0,.034-.006.051a1.924,1.924,0,0,0,.011.4v.007a10.555,10.555,0,0,1,.038,1.229,2.055,2.055,0,0,1,.3,1.249V34.4c0,.179,0,.3.045.306a3.4,3.4,0,0,0,.242.592l.01.02.006.014c.087.18.17.365.24.534l.037.092.077.2,0,.011.009.023.007.018,0,.005.009.022.007.018,0,.005.009.023,0,.011a18.129,18.129,0,0,0,1.175,2.6.366.366,0,0,1,.068.291.323.323,0,0,0,.081.287c.046.087.167.319.249.354a2.894,2.894,0,0,1,.344.445l.005.008.005.008,0,.006.006.009.005.007.015.023.028.042c.029.044.059.089.094.139a4.573,4.573,0,0,1,.459.933l.005.013,0,.008,0,.01,0,.007a5.561,5.561,0,0,0,.385.823l.062.1.023.036.022.035.055.086a3.015,3.015,0,0,1,.609,1.5,4.17,4.17,0,0,0,.293.608l.008.015.372,1.008a.292.292,0,0,0,.2.143.492.492,0,0,1,.374.4c.026.09.106.142.207.208a1.154,1.154,0,0,1,.5.561,1.178,1.178,0,0,0,.3.356,1.122,1.122,0,0,1,.289.348A.507.507,0,0,0,18.2,48l.08.014a1.487,1.487,0,0,1,.327.181l.005,0,.02.013.012.007.01.006.01.006.016.01.012.007.005,0,0,0,.013.008.007,0a4.133,4.133,0,0,0,.506.275,3.809,3.809,0,0,0,1.264.325c.045,0,.076-.006.081-.014a.009.009,0,0,0,0-.009.647.647,0,0,1-.1-.461.552.552,0,0,0-.052-.346c-.045-.069-.2-.076-.346-.084s-.323-.015-.356-.071h.005a.4.4,0,0,0,.144-.035.058.058,0,0,0,.012-.064.116.116,0,0,0-.1-.041.149.149,0,0,0-.113.043.347.347,0,0,1,.021-.328.278.278,0,0,0,.036-.2.927.927,0,0,0-.287-.342l-.005,0-.008-.007c-.071-.059-.114-.1-.11-.123a.215.215,0,0,1,.13-.164.4.4,0,0,0,.167-.165.2.2,0,0,1,.148-.122c.043-.009.071-.015.071-.092a.247.247,0,0,0-.092-.211l-.01.009a1.6,1.6,0,0,1-.449.334h-.006l-.013,0-.013,0c-.034-.007-.063-.013-.074-.038s0-.078.043-.162a.677.677,0,0,1,.494-.4.178.178,0,0,0,.163-.194.147.147,0,0,0-.139-.155h-.023a.339.339,0,0,1-.274-.139s-.055-.407-.02-.417a.643.643,0,0,1,.089,0c.07,0,.158,0,.185,0H19.7v-.341c0-.145-.084-.231-.166-.231a.133.133,0,0,0-.117.083.073.073,0,0,1-.065.046c-.086,0-.212-.156-.279-.239l-.047-.056c-.039-.045-.023-.146-.011-.227l0-.021c.013-.087.026-.169,0-.2a.05.05,0,0,0-.039-.015.043.043,0,0,1-.042-.023c-.032-.073.108-.307.218-.43a.49.49,0,0,1,.236-.158.231.231,0,0,1,.24-.233.312.312,0,0,1,.072.008v-.737l-.167.019,0,.01c.031.345.024.55-.017.562a2.676,2.676,0,0,1-.329.017c-.07-.008-.064-.12-.059-.229s.009-.2-.032-.24a.073.073,0,0,0-.054-.022h-.008a.438.438,0,0,0-.373.26c-.038.064-.064.1-.093.1h-.14v-.005c.007-.1.037-.584-.092-.723a.1.1,0,0,0-.076-.035h-.006a.367.367,0,0,0-.243.068.11.11,0,0,0-.02.085c0,.027,0,.045-.008.056a.083.083,0,0,1-.058.015c-.182,0-.273-.05-.328-.349-.065-.346-.174-.7-.493-.739l-.036,0c-.159,0-.169.126-.178.237s-.018.221-.113.245a.162.162,0,0,1-.04,0c-.125,0-.242-.133-.337-.239l-.009-.01A.618.618,0,0,0,16.214,41c-.141-.053-.168-.271-.168-.654,0-.3.085-.461.239-.461a.291.291,0,0,1,.059.007.7.7,0,0,0,.159.025.387.387,0,0,0,.279-.156.462.462,0,0,1,.139-.091l.005,0c.146-.064.272-.119.256-.626a.731.731,0,0,0-.511-.72h-.009c-.237,0-.26.334-.277.578v.075l0,.013a.437.437,0,0,1-.035.165.089.089,0,0,1-.076.052.23.23,0,0,1-.078-.022l-.017-.006a.356.356,0,0,0-.13-.028.171.171,0,0,0-.045,0c-.168.024-.167.258-.166.3-.015.019-.1.112-.428.112a.2.2,0,0,0-.162.056c-.058.07-.034.193-.009.323a.958.958,0,0,1,.026.268.609.609,0,0,1-.071.208.157.157,0,0,1-.1.074c-.075.026-.154.054-.156.282,0,.352.074.363.165.375a.2.2,0,0,1,.154.077.514.514,0,0,1,.057.136l0,.008a.73.73,0,0,0,.06.148.677.677,0,0,1,.05.093c-.053-.008-.112-.02-.237-.048l-.009,0-.2-.041h-.015c-.035,0-.072.018-.076.051a.747.747,0,0,0,.048.421.84.84,0,0,0,.274.26l0,0c.146.105.3.214.293.341a1.154,1.154,0,0,0-.357-.117l-.007,0-.009,0a1.083,1.083,0,0,1-.327-.106c-.122-.124-.072-.269-.019-.422a.527.527,0,0,0,.03-.412c-.05-.107-.093-.217-.136-.324L14.67,41.2l0-.013-.005-.013,0-.009-.005-.014,0-.006,0-.007a3.06,3.06,0,0,0-.243-.51,2.772,2.772,0,0,1-.311-.76l0-.005a1.271,1.271,0,0,0-.436-.777,3.26,3.26,0,0,1-.918-2c.011-.04.031-.061.059-.064a.087.087,0,0,0,.069-.039c.067-.1-.026-.37-.1-.587l0-.009,0-.014-.005-.015,0-.014,0-.009,0-.005,0-.01,0-.008,0-.008,0-.008a1.32,1.32,0,0,1-.073-.29.273.273,0,0,0-.126-.228c-.054-.044-.1-.079-.1-.144,0-.142,0-.518-.023-.714a.956.956,0,0,0-.109-.268l-.007-.014c-.07-.135-.15-.289-.115-.364a.081.081,0,0,1,.061-.044c.029-.006.044-.015.045-.026,0-.035-.118-.089-.273-.157a2.126,2.126,0,0,1-.4-.212.655.655,0,0,1-.205-.494.211.211,0,0,1,.036-.147.672.672,0,0,1,.224-.1c-.085-.008-.139-.012-.178-.012a.128.128,0,0,1-.1-.041c-.052-.059-.062-.18-.033-.4a.938.938,0,0,1,.382-.531l.027-.022a.375.375,0,0,0,.092-.178l0-.006,0-.007a.834.834,0,0,1,.085-.194c.08-.125.466-.139.628-.139h.037l0,.006a1.164,1.164,0,0,0-.363.453.627.627,0,0,0-.041.112l0,.008,0,.008,0,.008a.9.9,0,0,1-.069.177.47.47,0,0,0-.005.3.56.56,0,0,1-.049.045.19.19,0,0,0-.06.169c0,.059,0,.114-.061.152a.834.834,0,0,1-.2.068l-.006,0-.032.009-.052.014a1.729,1.729,0,0,0,.188.014.2.2,0,0,0,.127-.027.248.248,0,0,1,.057-.034.175.175,0,0,0,.116-.186,1.077,1.077,0,0,0-.026-.2v-.006l0-.021a2.907,2.907,0,0,0,.411-.57,1.061,1.061,0,0,0,.074-.5l.02-.008h-.021c0-.033,0-.065,0-.1v-.128a.822.822,0,0,1,0-.163c.021-.182.485-.338.625-.338.018,0,.029,0,.033.008a.01.01,0,0,1,0,.009c-.023.074-.121.442-.174.643a.059.059,0,0,0,.005.051.078.078,0,0,0,.064.02.526.526,0,0,0,.065-.005h.014l.028,0,.019,0h.052c.082,0,.119.03.119.1a.423.423,0,0,1-.028.122l0,.008a.286.286,0,0,0-.013.242c.046.08.166.138.367.18.385.08.373.39.361.718v.066a1.881,1.881,0,0,0,0,.216c0,.032,0,.065,0,.1.01.307.02.624.853.653a.632.632,0,0,1,.483.219,1.236,1.236,0,0,1,.183.843v.046c.018,1.351.02,1.981.006,2.248a.6.6,0,0,0,.081.425.238.238,0,0,0,.183.058c.031,0,.066,0,.111,0h.007c.006,0,.063-.005.13-.005.022,0,.044,0,.067,0s.038,0,.056,0c.26,0,.265-.155.269-.319l0-.043c.005-.153.116-.227.337-.227a1.8,1.8,0,0,1,.212.015h.005l.025,0c.025,0,.045,0,.06,0s.036,0,.042-.012.005-.036,0-.074a.819.819,0,0,1,0-.365c.036-.164.156-.244.368-.244a1.586,1.586,0,0,1,.182.013.712.712,0,0,0,.109.009.044.044,0,0,0,.044-.023c.013-.032-.015-.089-.068-.143a.061.061,0,0,0-.025-.015l-.018-.007-.006,0a.146.146,0,0,1-.047-.021.069.069,0,0,1-.027-.029.093.093,0,0,0-.031-.033.147.147,0,0,1-.032-.018l0,0a.179.179,0,0,0-.049-.025l-.024-.008a.125.125,0,0,0-.05-.01.031.031,0,0,1-.025-.008c-.008-.01-.006-.03,0-.062,0-.012.005-.021.008-.03a.182.182,0,0,0,.01-.048.193.193,0,0,0-.018-.086.347.347,0,0,1-.014-.04.209.209,0,0,0-.1-.1c-.071-.044-.16-.1-.16-.2,0-.273.191-.286.293-.293.038,0,.066,0,.07-.017l.007-.023c.011-.032.021-.063.03-.095l.013-.041.009-.028a2.994,2.994,0,0,1,.335-.794,5.437,5.437,0,0,1,.449-.567l.01-.012.008-.009.007-.008.008-.009,0,0,.013-.015c.186-.214.353-.408.506-.623.082-.117.154-.223.18-.264l0,0a3.243,3.243,0,0,1,.739-.851,7.1,7.1,0,0,1,1.386-.743l.005,0,.005,0,.011,0,.005,0,.01,0,.013-.007L21.4,31.2l.009,0,.009,0,.085-.037.027-.012.076-.033.035-.015.089-.041a4.494,4.494,0,0,1,1.575-.462.365.365,0,0,1,.3.1.187.187,0,0,1,.013.174c-.018.056-.089.068-.18.085a.467.467,0,0,0-.407.247,2.467,2.467,0,0,0-.1.977v.011c.006.258.011.461-.055.5a.713.713,0,0,1-.206.059l-.014,0-.008,0h-.012a2.625,2.625,0,0,0-.461.135l-.046.018-.125.05L21.877,33l-.008,0c-.073.028-.21.083-.41.164a.921.921,0,0,0-.2.119l-.007,0-.007.005,0,0-.013.009,0,0-.007.005-.008.005-.005,0-.006,0a1.175,1.175,0,0,1-.212.134,11.114,11.114,0,0,0-1.731.836A4.064,4.064,0,0,0,18.1,35.352c-.017.027-.033.05-.049.072l0,.006a.777.777,0,0,0-.092.162.224.224,0,0,0-.008.179.151.151,0,0,0,.04.036l.028.014,0,0a.162.162,0,0,1,.03.016l.015.013.007.007a.113.113,0,0,0,.053.035l.045,0,.014,0H18.2a.558.558,0,0,1,.079.014.542.542,0,0,1,.074.025l.01,0,.012.005a.375.375,0,0,0,.123.037l.1.005.035,0h.01a1.059,1.059,0,0,1,.121.01h.013c.057,0,.072-.072.091-.163a.713.713,0,0,1,.212-.42.418.418,0,0,1,.16-.044l.01,0c.042-.007.092-.016.139-.029a.319.319,0,0,0,.06-.029l.011-.006a.189.189,0,0,1,.085-.03.114.114,0,0,1,.024,0,.14.14,0,0,0,.026,0,.185.185,0,0,0,.085-.028l.006,0a.24.24,0,0,1,.068-.025.1.1,0,0,1,.025,0c.019,0,.043,0,.065,0h.013l.023,0h.007l.023,0h.039a.52.52,0,0,0,.126-.041.471.471,0,0,1,.149-.044,1.845,1.845,0,0,1,.229-.013H20.6a1.127,1.127,0,0,0,.173-.009c.152-.02.271-.04.376-.065.052-.015.107-.032.159-.049l.022-.007L21.375,35l.02-.007.025-.008a1.625,1.625,0,0,1,.166-.052.532.532,0,0,1,.139-.013l.06,0h.023l.035,0A.464.464,0,0,0,22,34.9c.034-.011.072-.023.12-.043l.014-.005.01,0,.01,0a1.813,1.813,0,0,1,.263-.086.122.122,0,0,1,.038,0,.41.41,0,0,1,.081.006h.009a.615.615,0,0,0,.106.006h.03a1.033,1.033,0,0,0,.152-.026l.01,0a1.223,1.223,0,0,1,.277-.036.967.967,0,0,0,.2-.033l.006,0,.006,0a1.187,1.187,0,0,1,.249-.037H23.6a3,3,0,0,1,2.035,1.294l.013.015.01.011.017.02a3.433,3.433,0,0,0,.245.269.9.9,0,0,0,.644.246c.681,0,1.4-.583,1.4-.9,0-.144.083-1.131.244-2.931l.015-.17c.232-2.623.55-6.212.519-6.634-.046-.592-.893-.783-1.386-.8h-.007a3.982,3.982,0,0,0-.554.1l-.035.007-.015,0-.013,0-.032.007-.023,0a5.784,5.784,0,0,1-.723.128c-.248.022-.336.277-.388.429l-.006.019a.205.205,0,0,1-.018.052c-.031.077-.137.113-.239.149l-.027.012-.005,0-.017.006-.006,0-.005,0-.017.006a1.278,1.278,0,0,0-.192.087,2.6,2.6,0,0,0-.419.467,3.822,3.822,0,0,1-.887.91,4.113,4.113,0,0,1-1.383.482,1.508,1.508,0,0,0-.636.284l-.008,0-.006,0-.014.008-.009.005-.01.006-.021.013a5.783,5.783,0,0,1-.51.289,2.154,2.154,0,0,1-.918.243.381.381,0,0,1-.154-.022c-.026-.014-.038-.027-.039-.042,0-.036.06-.074.1-.1l.008-.005.008,0c.092-.059.2-.127.184-.212-.017-.128-.216-.135-.362-.14a.893.893,0,0,1-.146-.009c-.022,0-.034-.015-.037-.032-.012-.072.151-.238.328-.335a.248.248,0,0,0,.082-.287c-.056-.208-.286-.43-.765-.43h-.106c-.126,0-.226,0-.268-.052A.132.132,0,0,1,19.026,27c.017-.123.215-.133.433-.133h.3c.368-.014.669-.543.911-.968l0-.008c.153-.27.285-.5.386-.5l.153.011h.008c.108.009.193.015.278.015.224,0,.342-.052.4-.175a.06.06,0,0,0,0-.054c-.051-.088-.333-.127-.56-.158L21.2,25a4,4,0,0,1-1.118-.307,1.093,1.093,0,0,1-.535-.617H17.012a.861.861,0,0,1,.194-.467.571.571,0,0,1,.484-.173l.1,0H17.9a.573.573,0,0,0,.088,0,.712.712,0,0,0,.255-.093.732.732,0,0,1,.354-.1c.152,0,.509-.034.561-.345a.237.237,0,0,0-.041-.2c-.089-.1-.288-.113-.538-.113h-.054c-.223,0-.308.182-.376.328l0,.009a.371.371,0,0,1-.1.16.116.116,0,0,1-.06.017c-.1,0-.212-.132-.269-.257-.029-.066-.055-.086-.118-.086l-.049,0h-.01l-.022,0a1.953,1.953,0,0,1-.2.01.146.146,0,0,1-.131-.065c-.1-.16.032-.557.093-.7a.2.2,0,0,1,.2-.129.85.85,0,0,1,.249.056l.013,0,.014,0,.043.014a.217.217,0,0,0,.052.007c.13,0,.273-.131.436-.4a.291.291,0,0,1,.289-.149l.05,0h.033l.036,0h.026l.036,0h.031l.063,0a1.475,1.475,0,0,0,.163-.011,1.516,1.516,0,0,1,.182-.018c.122-.007.122-.007.321-.226l.037-.041a.694.694,0,0,1,.549-.271l.053,0h.023l.023,0,.021,0,.02,0h.008l.068.005a.129.129,0,0,1,.1.049.624.624,0,0,1,.064.389l.02,0h.267l.2,0c.455,0,1.088.012,1.342.022a1.254,1.254,0,0,1,.821.475.2.2,0,0,0,.161.1.306.306,0,0,0,.2-.093,1.537,1.537,0,0,1,.834-.213c.029,0,.058,0,.086,0a.381.381,0,0,1,.272.081c.049.056.041.135.032.236v.04c0,.04-.005.077-.005.113,0,.185.195.206.341.206l.062,0h.033l.039,0h.107c.07,0,.073-.051.076-.111,0-.1.008-.223.21-.223h.008a.373.373,0,0,1,.326.2.41.41,0,0,0,.373.212c.017,0,.035,0,.054,0h.009c.118,0,.8.1,1.911.257l.01,0,.018,0,.035.005.013,0,.053.008.059.008.052.007c.511.074,2.065.3,2.3.3a.658.658,0,0,0,.5-.157.366.366,0,0,1,.18-.089.534.534,0,0,1,.08-.005l.021,0h.036l.024,0h.072c.029,0,.059,0,.085,0a.449.449,0,0,0,.313-.1.992.992,0,0,0,.16-.2l.007-.01,0-.005.006-.009.007-.011,0,0a.727.727,0,0,1,.4-.356l.006,0a3.108,3.108,0,0,0,.652.1,1.545,1.545,0,0,0,.8-.32,1.146,1.146,0,0,0,.206-.2.61.61,0,0,1,.354-.246c.04-.007.079-.013.114-.017l.024,0,.018,0c.177-.02.293-.033.328-.249l0-.008c.052-.268.124-.636.292-.721a.385.385,0,0,0,.161-.371.1.1,0,0,0-.106-.09.208.208,0,0,0-.055.008c-.294.079-.634.2-.656.453-.006.064-.006.127-.006.182v.024c0,.111,0,.2-.045.244a.13.13,0,0,1-.1.033,1.007,1.007,0,0,1-.171-.022l-.014,0-.028,0-.014,0h-.005a1.818,1.818,0,0,0-.323-.038.393.393,0,0,0-.293.1c-.176.176-.426.41-.556.41a.072.072,0,0,1-.053-.021c-.083-.082-.051-.191.1-.343a.846.846,0,0,0,.237-.411.044.044,0,0,0-.016-.032.224.224,0,0,0-.116-.022,1.306,1.306,0,0,0-.2.021l0-.268s-.023-.045-.122-.045a.6.6,0,0,0-.219.045.639.639,0,0,1-.2.03,1.253,1.253,0,0,1-.305-.041l-.037-.009-.024-.005-.006,0H32.3l-.008,0-.012,0-.011,0-.017,0-.014,0-.013,0-.016,0a.267.267,0,0,0-.038,0,.055.055,0,0,0-.02,0,.374.374,0,0,0-.107.087c-.06.058-.122.119-.177.119h-.008a.121.121,0,0,1-.09-.062.405.405,0,0,1,.016-.343,4.576,4.576,0,0,1,.657-.935.765.765,0,0,0,.088-.114l.006-.009.009-.014a.492.492,0,0,1,.465-.284,4.233,4.233,0,0,1,.48.036h.013a2.942,2.942,0,0,0,.324.027.379.379,0,0,0,.123-.013,1.2,1.2,0,0,1,.219-.033h.017c.17-.017.346-.035.346-.115v-.024a.431.431,0,0,0-.068-.292.159.159,0,0,0-.117-.045.359.359,0,0,0-.107.019,1.793,1.793,0,0,0-.229.086l-.014,0-.009,0a.508.508,0,0,1-.257.054l-.156,0-.074,0h-.044l-.076,0h-.128l-.047,0a1.233,1.233,0,0,0-.2.011l-.008,0a.41.41,0,0,1-.062.007.258.258,0,0,1-.077-.016l-.008,0c-.04-.012-.116-.033-.265-.064a.35.35,0,0,0-.086-.01.138.138,0,0,0-.127.057.113.113,0,0,0-.017.036c-.006.015-.009.021-.014.021s-.049-.057-.122-.176l-.245-.393h-.022l-.056,0a.743.743,0,0,0-.272.046l0-.006,0-.009,0-.005a.173.173,0,0,0-.014-.031,1.028,1.028,0,0,0-.1-.123l-.007-.009L31.5,17.6a.417.417,0,0,1-.131-.238h.025c.013,0,.023-.035.038-.1v-.005l0-.013,0-.012,0-.015,0-.005,0-.005,0-.005a.168.168,0,0,1,.022-.052.221.221,0,0,1,.184-.059l.023,0h.039l.022,0,.022,0,.022,0,.018,0,.02,0,.017,0,.019,0h.007l.014,0,.019,0,.016,0,.017,0,.024,0h.009l.023,0H32c.034,0,.059,0,.082,0s.045,0,.065,0c.122-.014.14-.049.159-.087a.18.18,0,0,1,.112-.1.448.448,0,0,1,.189-.031c.031,0,.067,0,.1,0h.068c.04,0,.081,0,.124,0a1.21,1.21,0,0,0,.3-.029.353.353,0,0,0,.243-.151.591.591,0,0,0,0-.44c-.045-.151-.292-.181-.577-.215H32.83l-.013,0a2.511,2.511,0,0,1-.5-.1.859.859,0,0,0-.246-.049.654.654,0,0,0-.214.04l-.005,0a.663.663,0,0,1-.218.045A.363.363,0,0,1,31.517,16c-.311-.071-.247-.549-.221-.752l0-.012a.236.236,0,0,1,.123-.163c.085-.063.165-.123.1-.279-.025-.055-.052-.082-.08-.082s-.08.054-.119.107l0,0-.023.032c-.056.08-.108.156-.166.156s-.1-.079-.123-.234a3.037,3.037,0,0,1-.017-.375v-.013c0-.087.027-.13.084-.13a.492.492,0,0,1,.205.089l.013.007.027.017a.362.362,0,0,0,.186.051l.04,0,.011,0,.008-.006a4.277,4.277,0,0,1,.257-1.021c.166-.338.668-.373.673-.373a.2.2,0,0,0,.142-.171.355.355,0,0,0-.169-.324.342.342,0,0,0-.189-.053,1.053,1.053,0,0,0-.219.033l-.011,0-.023.005a1.3,1.3,0,0,1-.214.038h-.022c-.028,0-.058,0-.084,0a2.015,2.015,0,0,1-.841-.2,8.8,8.8,0,0,0-1.337-.345c-.005,0-1.048-.071-1.559-.071a.363.363,0,0,1-.39-.241.381.381,0,0,0-.339-.254c-.3-.033-.341-.123-.381-.218a.324.324,0,0,0-.106-.153.376.376,0,0,0-.188-.043,2.02,2.02,0,0,1-.593-.131.827.827,0,0,1-.526-.609h-.013c-.3.008-1.008.028-1.24.049-.135.013-.163.1-.19.192s-.046.155-.15.155h-.023c-.267-.023-.321-.143-.328-.167l-.02-.011a.855.855,0,0,0-.454-.132h-.093c-.278,0-.537-.01-.641-.126a.192.192,0,0,1-.043-.158.6.6,0,0,1,.223-.318l.007-.007c.1-.1.2-.185.136-.268a.217.217,0,0,0-.168-.05,4.286,4.286,0,0,0-1.094.266l-.147.048-.039.013-.008,0-.016.005a4.159,4.159,0,0,1-.721.2c-.025,0-.041-.005-.047-.015-.029-.055.107-.143.227-.22l.006,0,.011-.006c.208-.133.467-.3.368-.459a.26.26,0,0,0-.237-.108,1.546,1.546,0,0,0-.5.13l-.014,0a.839.839,0,0,1-.129.047.145.145,0,0,1-.043,0,.583.583,0,0,1-.421-.3.619.619,0,0,0-.471-.33.681.681,0,0,0-.18-.029.318.318,0,0,0-.149.036l-.012.005a.673.673,0,0,1-.136.046,2.636,2.636,0,0,1-.4.024c-.138,0-.333-.01-.5-.024-.1-.011-.145-.107-.191-.21s-.1-.234-.248-.234a1.382,1.382,0,0,0-.452.124l-.014.005a2.439,2.439,0,0,1-.581.166.831.831,0,0,1-.143.009,1.866,1.866,0,0,1-.291-.028l-.019,0h-.014a1.376,1.376,0,0,0-.221-.023.571.571,0,0,0-.284.071c-.165.089-.191.271-.219.464a.752.752,0,0,1-.194.5,2.791,2.791,0,0,1-.657.4c-.168.074-.174.194-.124.42.013.057.058.085.136.085a.972.972,0,0,0,.344-.1.1.1,0,0,1,.034-.009.017.017,0,0,1,.015.006.071.071,0,0,1-.009.05,1.685,1.685,0,0,0-.154.483c-.012.114.048.195.183.248.032.01.051.023.055.039s-.008.031-.031.049l-.006,0c-.134.1-.279.225-.446.373a.342.342,0,0,0-.1.411.087.087,0,0,1,.01.073.072.072,0,0,1-.044.041.738.738,0,0,0-.376.365c-.026.06-.029.1-.01.126.029.045.107.051.18.051h.1c.033,0,.067,0,.073.017s0,.028-.028.051a2.789,2.789,0,0,0-.359.553c-.053.1-.111.2-.175.309l-.093.157,0,.006,0,0a2.145,2.145,0,0,1-.342.474c-.213.244-.238.335-.145.542a.224.224,0,0,0,.226.149l.035,0h.015l.017,0,.014,0,.016,0,.014,0,.019,0,.015,0,.014,0h.014l.012,0h.007l.02,0c.065-.008.113-.064.173-.135l0,0a1.037,1.037,0,0,1,.554-.376,1.509,1.509,0,0,0,.678-.351l.006,0,.009,0c.033,0,.115.033.153.342.047.4-.014.443-.278.565-.157.07-.212.328-.142.674.015.078.1.094.224.094l.058,0h.084c.031,0,.073,0,.161,0l.121,0a.209.209,0,0,1,.149.073,1.023,1.023,0,0,1,.1.642c0,.022,0,.037,0,.045,0,.028.048.048.1.07l.009,0,.012,0c.083.03.185.066.185.137,0,.122-.192.221-.194.222l0,.007a3.581,3.581,0,0,0-.075.6c0,.152-.116.185-.212.185a.463.463,0,0,1-.092-.01c-.043,0-.093,0-.158,0-.05,0-.106,0-.163,0h-.071l-.06,0h-.187a.941.941,0,0,0-.5.086.82.82,0,0,0-.16.407l0,.007-.005.023v.005l0,.006a1.658,1.658,0,0,1-.2.559,2.342,2.342,0,0,1-.617.563,4.056,4.056,0,0,1-.587,1.61c-.025.035-.048.057-.059.057s-.005,0-.006,0-.005-.022,0-.059a1.8,1.8,0,0,0,.029-.482c0-.043-.012-.067-.027-.067s-.032.019-.051.059a2.524,2.524,0,0,1-.268.441.381.381,0,0,1-.293.139.356.356,0,0,1-.1-.013,2.65,2.65,0,0,0-.512-.32.281.281,0,0,1-.158-.21.9.9,0,0,1,.28-.63c.034-.034.074-.071.107-.1l.006-.005,0,0,.006-.005c.2-.185.45-.415.339-.548a.134.134,0,0,0-.108-.043,1.092,1.092,0,0,0-.476.216s0-.089,0-.139c0-1.064,0-1.705-.014-1.905a.257.257,0,0,0-.159-.2l-.015-.067a.452.452,0,0,0-.077.027.937.937,0,0,0-.311-.049c-.234,0-.506.08-.568.3-.074.272-.21.368-.3.368-.079,0-.137-.064-.148-.163a2.157,2.157,0,0,1-.007-.27,1.411,1.411,0,0,0-.053-.47A1.323,1.323,0,0,0,9,16.269l-.013-.01c-.083-.067-.12-.114-.11-.142s.032-.027.077-.027a.528.528,0,0,1,.093.01l.571.017c.381-.028.381-.523.381-.734,0-.071-.007-.152-.013-.239v-.02A2.654,2.654,0,0,1,10,14.4a1.039,1.039,0,0,1,.181-.53l.039-.063a.46.46,0,0,0,.06-.255.72.72,0,0,1,.23-.535.564.564,0,0,0,.186-.489.211.211,0,0,1,.082-.225.687.687,0,0,0,.232-.677,5.77,5.77,0,0,1,.066-.974v-.016a.467.467,0,0,1,.184-.332.251.251,0,0,0,.114-.244A.428.428,0,0,0,11.31,9.9L11.3,9.893l0-.007a.989.989,0,0,1-.1-.918c.021-.087.15-.247.276-.247a.183.183,0,0,1,.155.108.65.65,0,0,1-.022.269l0,.014c-.034.163-.073.348.041.382a.369.369,0,0,1,.1-.1.932.932,0,0,0,.126-.108,1.4,1.4,0,0,0,.137-.175l0-.006c.065-.093.116-.166.178-.166a.114.114,0,0,1,.073.031c.051.056-.024.13-.112.215a.708.708,0,0,0-.181.238,2.093,2.093,0,0,0-.1.618.341.341,0,0,0,.056.259.175.175,0,0,0,.133.05.683.683,0,0,0,.247-.063c.062-.025.07-.1.08-.193.014-.154.029-.327.187-.4a.456.456,0,0,1,.139-.028c.146,0,.3.081.3.23,0,.2,0,.213.1.287a.12.12,0,0,0,.074.036c.024,0,.046-.016.085-.047s.05-.04.084-.063a.964.964,0,0,0,.155-.144l.009-.01c.1-.106.213-.226.305-.226a.094.094,0,0,1,.045.011.072.072,0,0,0,.04.009c.155,0,.418-.325.42-.328h-.242a.506.506,0,0,0-.074-.472.222.222,0,0,0-.189-.077,1.152,1.152,0,0,0-.455.133.074.074,0,0,1-.03.008A.023.023,0,0,1,13.322,9a.045.045,0,0,1,0-.042,2.619,2.619,0,0,1,1.254-.82.23.23,0,0,0,.175-.106.275.275,0,0,0,0-.215c-.112-.112-.071-.327.122-.641a.344.344,0,0,1,.185-.139.275.275,0,0,0,.2-.23,5.449,5.449,0,0,1,1.218-1.429,4.022,4.022,0,0,1,1.191-.64c.15-.039.238-.088.261-.147a.111.111,0,0,0-.017-.1c-.02-.029-.107-.035-.177-.035a3.04,3.04,0,0,0-.723.109,2.96,2.96,0,0,0-.677.317l0,0a1.266,1.266,0,0,1-.813.734l-.089.015-.009,0-.01,0-.014,0-.008,0-.026,0-.011,0a4.149,4.149,0,0,1-.578.072c-.105,0-.171-.018-.2-.055a.1.1,0,0,1-.019-.087l0-.013c.014-.085.014-.085.155-.154l.007,0,.008,0c.071-.034.139-.07.215-.111l.02-.011.005,0c.275-.148.4-.384.366-.526a.155.155,0,0,0-.169-.114,7.388,7.388,0,0,0-2.216,1.328,3.351,3.351,0,0,0-.683.9l0,.005,0,.005c-.055.095-.1.173-.149.246a.2.2,0,0,1-.169.077.253.253,0,0,1-.181-.073.329.329,0,0,1-.083-.237,3.617,3.617,0,0,1,.789-1.885.431.431,0,0,0,.056-.14l0-.008a.387.387,0,0,1,.048-.121c.221-.282.325-.343.339-.343a.665.665,0,0,0-.114.412V4.83a.79.79,0,0,1-.057.306c-.021.042-.028.07-.021.083a.02.02,0,0,0,.016.007.478.478,0,0,0,.171-.09l.009-.005.012-.007A.488.488,0,0,1,13,5.08a1.607,1.607,0,0,0,.5-.3l.06-.045.055-.041c.036-.027.075-.056.118-.086l.005,0a2.292,2.292,0,0,1,.824-.453.556.556,0,0,1,.1-.013A.634.634,0,0,1,15,4.252l0,0,.01.005.007,0,.013.007.008,0a.491.491,0,0,0,.1.048.245.245,0,0,0,.085.012,1.3,1.3,0,0,0,.234-.032h.007l.01,0a1.934,1.934,0,0,1,.372-.046h.2c.234,0,.373,0,.575.021h.034c.375,0,.41-.37.429-.569a10.75,10.75,0,0,1,.187-1.169.71.71,0,0,1,.317-.36l.041-.028c.14-.1.272-.189.306-.314a1.207,1.207,0,0,1,1-.636c.109,0,.168.035.168.1a.255.255,0,0,1-.129.222.342.342,0,0,0-.186.267c-.015.169.144.228.284.279.1.036.205.073.205.148,0,.179-.039.2-.137.221h-.008a.235.235,0,0,1-.037,0,.955.955,0,0,1-.144-.014h-.006l-.011,0-.014,0-.046-.007a1.93,1.93,0,0,0-.281-.026.545.545,0,0,0-.084,0c-.133.012-.13.105-.126.2a.265.265,0,0,1-.059.228,1.067,1.067,0,0,1-.294.112l-.011,0-.028.007c-.253.07-.54.15-.559.3-.013.133-.039.408.017.47a.035.035,0,0,0,.026.013.08.08,0,0,0,.046-.023,3.012,3.012,0,0,1,1.049-.271,1.551,1.551,0,0,0,.6-.253l.023-.014c.089-.051.162-.093.229-.129a2.483,2.483,0,0,1,1.072-.318.674.674,0,0,1,.089,0,1.458,1.458,0,0,1,.4.064l.017,0a1.3,1.3,0,0,0,.338.059h.012a1.557,1.557,0,0,0,.409-.086l.015,0a1.662,1.662,0,0,1,.519-.105.994.994,0,0,1,.565.19l.018.011a1.179,1.179,0,0,0,.12.07.911.911,0,0,0,.378.068,1.475,1.475,0,0,0,.377-.044.421.421,0,0,0,.214-.136,1,1,0,0,1,.224-.182.975.975,0,0,1,.547-.128h.183c.12,0,.184-.018.2-.056s-.013-.108-.1-.214a.576.576,0,0,0-.257-.162l-.042-.014a.643.643,0,0,1-.26-.147,1.486,1.486,0,0,1-.242-.293L23.1,1.684a1.888,1.888,0,0,1-.147.275.534.534,0,0,1-.431.152c-.028,0-.06,0-.1,0a.245.245,0,0,1-.176-.084.6.6,0,0,1-.046-.421l0-.015a.589.589,0,0,1,.081-.21l0-.006a.774.774,0,0,0,.112-.3A.208.208,0,0,0,22.338.9a.518.518,0,0,0-.362-.127c-.172,0-.194.025-.222.245a.3.3,0,0,0,.2.3c-.027-.008-.911-.076-1.071-.076-.063,0-.2,0-.5.025h-.014a.511.511,0,0,0-.059,0h-.031a1.089,1.089,0,0,0-.145.023l-.023,0a.764.764,0,0,1-.142.022.1.1,0,0,1-.108-.094c-.024-.191.385-.6.779-.865A3.136,3.136,0,0,1,21.32.011a1.779,1.779,0,0,1,.2-.011h2.91c.129,0,.237.005.32.011a26.423,26.423,0,0,1,3.482.444,1.654,1.654,0,0,1,.74.433L28.984.9,29,.909l.014.012.005,0,.005,0a1.186,1.186,0,0,0,.182.14,1.063,1.063,0,0,0,.518.076,1.286,1.286,0,0,1,.553.075,3,3,0,0,1,.474.345l0,0,.012.01,0,0a3.623,3.623,0,0,0,.6.426c.114.058.306.133.527.218l.017.007.02.007.005,0,.017.006.015.006.026.01.01,0,.012,0,.014.005a8.534,8.534,0,0,1,1.6.739,7.747,7.747,0,0,1,.884.735l.02.019,0,0,0,0,.012.011.008.008,0,0a5.232,5.232,0,0,0,.488.425,3.514,3.514,0,0,0,.383.212l.008,0,.016.008.008,0a2.024,2.024,0,0,1,.716.482,3.268,3.268,0,0,1,.2.287l.017.026.011.018.011.018.007.012.007.012.006.01.01.016,0,0a4.327,4.327,0,0,0,.335.492c.085.112.19.263.331.473l.01.014a21.3,21.3,0,0,0,1.356,1.822,5.237,5.237,0,0,1,1.05,2.417l.006.032c.009.049.017.087.024.118.032.15.055.543.075.89l0,.033,0,.032a10,10,0,0,0,.109,1.2c.071.307.132,1.171.168,1.688v.031l0,.028,0,.023,0,.027,0,.053c.018.244.03.418.044.567.045.484.033,2.066.008,2.975a.179.179,0,0,0,0,.164.875.875,0,0,1-.208.517c-.03.042-.051.075-.073.109l.027-.082c-.069.018-.1.077-.08.167a1.848,1.848,0,0,0-.23.835c-.007.147-.006.265-.005.389V20.4a18.016,18.016,0,0,1-.178,2.5,10.175,10.175,0,0,1-1.465,4.118.17.17,0,0,0-.049.07c-.053.113-.1.206-.144.292a9.191,9.191,0,0,0-.628,1.47s-.007.015-.007.015a.546.546,0,0,0-.041.167,1.439,1.439,0,0,0,.008.34l0,.014v.022l0,.018v.012a3.354,3.354,0,0,1,.012.688,1.636,1.636,0,0,1-.137.448l0,.007-.005.012,0,.011,0,.012,0,.008a1.4,1.4,0,0,0-.1.323l.055.389-.17.371-.275.493.142.4a1.529,1.529,0,0,0,.019.275l-.008.028a2.009,2.009,0,0,1-.061.209.437.437,0,0,1-.094.143l0,0a.243.243,0,0,0-.1.164c0,.015,0,.032,0,.053v.017l0,.036v.011a.724.724,0,0,1-.018.344,3.328,3.328,0,0,0-.277.711l-.009.028-.008.026-.005.016c-.009.029-.046.146-.068.2.311.2.812.473,1.257.716l.027.015.027.014.018.01.005,0,0,0,.005,0,.006,0A32.737,32.737,0,0,1,45.5,41.62c2.7,2.9,6.536,8.153,6.623,9.352v1.948ZM20.845,42.588a.075.075,0,0,0-.063.028.112.112,0,0,0-.006.1.176.176,0,0,0,.157.128.192.192,0,0,0,.076-.02.14.14,0,0,0,.088-.154.134.134,0,0,0-.139-.091.246.246,0,0,0-.077.014h-.006A.076.076,0,0,0,20.845,42.588Zm-.5-.347c-.082,0-.157.1-.181.2s0,.164.055.193a.158.158,0,0,0,.069.019.085.085,0,0,0,.074-.044.524.524,0,0,0,0-.368Zm5.341-.014a.181.181,0,0,0-.138.048.144.144,0,0,0-.032.113c.006.081.1.11.186.11a.29.29,0,0,0,.221-.084.1.1,0,0,0,.017-.093l.011-.011A.525.525,0,0,0,25.683,42.228Zm-4.135-.691a.506.506,0,0,1,.051,0,.44.44,0,0,1,.319.121.368.368,0,0,1,.045.286c-.03.222-.023.432.229.47a.589.589,0,0,0,.165.014c.132,0,.172-.043.192-.107.028-.1.18-.371.4-.371a1.133,1.133,0,0,0,.174-.009h.008l.018,0h.008l.016,0h.015a.666.666,0,0,1,.067,0,.1.1,0,0,1,.076.023.1.1,0,0,1,.019.081c-.006.107,0,.169.031.2a.078.078,0,0,0,.06.022h.019l.023,0H23.5c.063,0,.084,0,.092-.18a.412.412,0,0,0,0-.06v-.087c-.008-.128-.014-.221.13-.237a2.494,2.494,0,0,1,.333-.028l.072-.005c.028,0,.036.072.045.191v.007c.011.146.023.311.1.311.157,0,.166-.292.171-.485v-.012c0-.09.005-.144.021-.145l.368-.03.079-.006.03,0h.044a.283.283,0,0,0,.3-.319c0-.643-.745-.82-1.289-.949l-.16-.038a3.24,3.24,0,0,0-.838-.076H22.75a2.147,2.147,0,0,1-.466-.032,2.082,2.082,0,0,1-.436-.2l-.016-.009-.008,0-.012-.006-.007,0-.007,0-.007,0a2.088,2.088,0,0,0-1-.4,1.1,1.1,0,0,0-.211-.012,1.366,1.366,0,0,0-.3.036l-.018,0-.006,0h-.005l-.008,0-.007,0-.007,0a2.244,2.244,0,0,1-.356.063c-.249.026-.831.118-.846.4,0,.092-.016.556.2.707a1.686,1.686,0,0,1,.2.2,1.558,1.558,0,0,0,.273.255,1.019,1.019,0,0,0,.431.077.594.594,0,0,1,.209.025c.127.068.146.13.139.169a.179.179,0,0,1-.151.115.286.286,0,0,0-.2.173.133.133,0,0,0,.044.141.269.269,0,0,0,.189.052h.116a.186.186,0,0,1,.136.036.112.112,0,0,1,.023.092.11.11,0,0,1,0,.023v.019a.113.113,0,0,0,.01.1.11.11,0,0,0,.088.029c.128,0,.347.011.427.016h.027l.039-.385S21.236,41.537,21.548,41.537Zm4.067-.32c-.074,0-.121.036-.127.1a.233.233,0,0,0,.194.225.293.293,0,0,0,.043,0,.149.149,0,0,0,.112-.046.155.155,0,0,0,.037-.12.186.186,0,0,0-.2-.165l-.043,0h-.016ZM14.582,39.468a.085.085,0,0,0-.069.04.074.074,0,0,0,0,.074.122.122,0,0,1,.011.02l0,.01a.073.073,0,0,0-.024.038.07.07,0,0,1,0,.019v.007a.061.061,0,0,0-.047.068,1.315,1.315,0,0,0,.05.321.07.07,0,0,0,.07.055.076.076,0,0,0,.071-.042.538.538,0,0,0,.07.007.427.427,0,0,0,.105-.014.077.077,0,0,0,.052-.093,1.648,1.648,0,0,0-.122-.268l-.005-.011,0,0-.008-.014,0,0,0,0,0,0-.005-.011-.005-.011-.009-.016c-.023-.041-.044-.081-.066-.122A.062.062,0,0,0,14.582,39.468Zm-.7-2a.085.085,0,0,0-.077.057l0,0a.081.081,0,0,0-.01.014.064.064,0,0,0-.037.069,1.839,1.839,0,0,0,.118.452.371.371,0,0,1,.017.085l0,.044,0,.03a.024.024,0,0,0,0,.011.552.552,0,0,0,.071.354.068.068,0,0,0,.06.031.076.076,0,0,0,.043-.013.16.16,0,0,1,.107-.044.32.32,0,0,1,.056.006l.057.007H14.3a.073.073,0,0,0,.064-.043.162.162,0,0,0,.079-.087.253.253,0,0,0,.1-.2.133.133,0,0,0-.087-.1.573.573,0,0,0-.2-.032h-.022a.077.077,0,0,1-.025-.01l-.005,0-.006,0a.191.191,0,0,1-.089-.159.336.336,0,0,0-.083-.27.783.783,0,0,0-.087-.176A.07.07,0,0,0,13.885,37.47Zm.695-1.4a.064.064,0,0,0-.047.021c-.058.059-.055.237-.053.355v.042c0,.161.167.218.305.218a.386.386,0,0,0,.3-.112.185.185,0,0,0,.04-.179.334.334,0,0,0-.247-.188.042.042,0,0,1-.027-.017c-.005-.009,0-.022.005-.034a.073.073,0,0,0,.01-.038.409.409,0,0,1,.038-.1l.005-.013.005-.014,0-.009.005-.011,0-.006c.045-.1.12-.271.086-.305a.293.293,0,0,0-.073-.057l-.01-.005-.014-.008-.008-.005-.007,0-.005,0-.005,0a.1.1,0,0,0-.038-.009.072.072,0,0,0-.04.009c-.075.051-.085.179-.094.281s-.013.209-.07.209a.046.046,0,0,1-.028-.006A.1.1,0,0,0,14.58,36.072Zm-1.738-3.528a.083.083,0,0,0-.085.072l-.008.06a2.652,2.652,0,0,0-.041.6.087.087,0,0,1,0,.014.833.833,0,0,0,.254.5,1.532,1.532,0,0,1,.3.6c0,.051,0,.1-.005.159v.036l0,.052c0,.032,0,.063,0,.1a.042.042,0,0,0,.015.029.391.391,0,0,0,.216.087.042.042,0,0,0,.036-.013.023.023,0,0,0,0-.023c-.04-.148-.07-.271-.1-.421a.953.953,0,0,0-.054-.4,3.256,3.256,0,0,1,.012-.617.06.06,0,0,0-.014-.049.078.078,0,0,0-.059-.024.075.075,0,0,0-.053.019.058.058,0,0,1-.039.013.6.6,0,0,1-.222-.094l-.008,0-.008,0-.005,0-.012-.006a.141.141,0,0,0-.05-.023h-.052a2.723,2.723,0,0,1,.035-.438l0-.014,0-.014,0-.015.012-.1a.059.059,0,0,0-.014-.05A.068.068,0,0,0,12.842,32.544ZM14.5,34.2c-.171,0-.2.211-.2.3a.055.055,0,0,0,.016.039.276.276,0,0,0,.167.042.546.546,0,0,0,.093-.012.053.053,0,0,0,.029.006.063.063,0,0,0,.048-.022,2.211,2.211,0,0,0,.16-.19.066.066,0,0,0,.005-.069.082.082,0,0,0-.072-.042.074.074,0,0,0-.062.034.016.016,0,0,1-.013.008c-.01,0-.018-.008-.035-.025l-.011-.011a.154.154,0,0,0-.081-.056A.367.367,0,0,0,14.5,34.2Zm-.391-.266a.154.154,0,0,0-.127.122.078.078,0,0,0,.033.084.908.908,0,0,0,.268.134h.008c.009,0,.014,0,.014-.014a.813.813,0,0,0-.177-.324ZM12.782,19l.022.005.031.009v0a.081.081,0,0,0-.059.024.185.185,0,0,0-.041.131c0,.088.038.181.11.181a.119.119,0,0,0,.052-.015c.058-.033.077-.2.05-.26a.133.133,0,0,0-.108-.067Zm-.748-.986a.162.162,0,0,0-.152.114,1.464,1.464,0,0,0-.1.5v.022l0,.028v.011a.451.451,0,0,1-.008.074.058.058,0,0,0,.013.047.2.2,0,0,0,.149.051.409.409,0,0,0,.258-.1.558.558,0,0,0,.184-.444.23.23,0,0,0-.094-.187A.439.439,0,0,0,12.034,18.014Zm-.579-2.079a.521.521,0,0,0-.132.026l-.013,0a.547.547,0,0,1-.053.016.373.373,0,0,0-.163.134l-.02.022-.019.022a.4.4,0,0,0-.047.062.635.635,0,0,1-.1.131.061.061,0,0,0-.023.055c.005.026.032.049.085.074a.029.029,0,0,0,0,.028c.008.013.033.02.07.02a.88.88,0,0,0,.253-.048.142.142,0,0,0,.08-.119c.006-.034.049-.063.1-.1l.008,0,.005,0,.005,0,.01-.006.007,0c.021-.012.041-.023.059-.036.039-.026.039-.074,0-.141a.549.549,0,0,1-.033-.085C11.523,15.951,11.5,15.935,11.455,15.935Zm22.529-1.3c-.125,0-.2.016-.216.048a1.932,1.932,0,0,0,0,.609.226.226,0,0,0,.049.164.2.2,0,0,0,.154.058,1.449,1.449,0,0,1,.19.005h.018l.058,0a.579.579,0,0,0,.119-.007s.1-.005.108-.067a.4.4,0,0,0-.008-.162l0-.013,0-.008,0-.012,0-.016a.336.336,0,0,1-.018-.108c0-.06.026-.072.068-.072h.059l.04,0a.254.254,0,0,0,.09-.01c.108-.027.1-.081.079-.15l0-.008,0-.008,0-.008,0-.01,0-.011a.192.192,0,0,1,0-.055s-.022-.1-.213-.118l-.052-.006h-.009l-.02,0-.03,0h-.006A4.347,4.347,0,0,0,33.984,14.634Zm-22.4-.752a.227.227,0,0,0-.181.062.972.972,0,0,0-.1.137c-.02.03-.04.06-.062.089a.391.391,0,0,1-.045.053.158.158,0,0,0-.056.1.461.461,0,0,0,.092.229.28.28,0,0,0,.2.068l.053,0h.032c.063,0,.085-.015.158-.066l.04-.029.009-.006.031-.023.021-.014a.514.514,0,0,1,.052-.03l.013-.007.022-.012.009,0a.259.259,0,0,0,.112-.076.114.114,0,0,0,0-.079v-.019a.18.18,0,0,1,0-.069.3.3,0,0,0-.081-.236A1.009,1.009,0,0,0,11.585,13.882Zm22.794-.1a.431.431,0,0,0-.255.084c-.1.074-.018.26,0,.3a.13.13,0,0,0,.059.011.216.216,0,0,0,.074-.011c.023-.008.034-.015.036-.023s-.006-.02-.014-.031a.075.075,0,0,1-.022-.051c0-.031.017-.037.048-.048l.008,0a.4.4,0,0,0,.085-.036.167.167,0,0,0,.095-.14.044.044,0,0,0-.038-.039A.187.187,0,0,0,34.379,13.785Zm-9.4-4.409a.462.462,0,0,0-.32.188l-.035.036a.563.563,0,0,1-.186.137l-.04.017a.155.155,0,0,0-.091.078.3.3,0,0,0-.026.156V10a.556.556,0,0,1,0,.067.308.308,0,0,1-.008.043l0,.009a.163.163,0,0,0,0,.1c.027.056.1.065.142.065a.316.316,0,0,0,.2-.065.258.258,0,0,0,.039-.053l.007-.011a.211.211,0,0,1,.03-.039c.015-.014.015-.018.015-.021s-.007,0-.023-.005a.013.013,0,0,1-.008-.007c0-.005,0-.014.011-.032v-.007l0-.013v-.006c0-.02,0-.03,0-.035l.01,0H24.7a.125.125,0,0,0,.085-.046.319.319,0,0,1,.248-.08h.139a.456.456,0,0,0,.294-.068.118.118,0,0,0,.032-.088c0-.049-.089-.131-.248-.23a.531.531,0,0,0-.256-.1Zm-1.9-.023a.541.541,0,0,1,.132.009.429.429,0,0,1,.27.134.084.084,0,0,1,.019.052c0,.014,0,.02.047.049a.483.483,0,0,0,.14.052l.017.005.031.009a.879.879,0,0,0,.258.043.162.162,0,0,0,.123-.037.08.08,0,0,0,.017-.065c-.01-.08-.155-.1-.283-.119h-.018a.534.534,0,0,1-.212-.059.24.24,0,0,1-.068-.1l0-.007,0-.007a.308.308,0,0,0-.043-.064.783.783,0,0,0-.33-.112l-.026-.005-.064-.013c-.036-.007-.074-.016-.114-.026l-.032-.008-.009,0a1.9,1.9,0,0,0-.44-.072.506.506,0,0,0-.328.1c-.041.035-.06.066-.057.092s.022.048.06.067l0-.008c.048.071.149.081.251.081H22.6c.051,0,.13.006.262.006l.071,0h.038ZM26.393,9.2c-.128,0-.291.016-.339.091a.111.111,0,0,0,0,.113c.022.048.077.072.167.072a1.1,1.1,0,0,0,.206-.025l.076-.012c.048-.006.152-.036.171-.087.009-.023,0-.046-.022-.073l.035-.056A1.942,1.942,0,0,0,26.393,9.2Zm-2.569-.827a.4.4,0,0,1,.128.019.721.721,0,0,1,.257.17.441.441,0,0,0,.2.126,5.329,5.329,0,0,0,.713.11,1.621,1.621,0,0,0,.265-.046l.007,0,.006,0,.006,0,.006,0,.021,0a1.542,1.542,0,0,1,.272-.052c.436,0,.559-.03.585-.056a.194.194,0,0,1,.059-.029l.005,0,.006,0,.006,0,.014,0c.062-.021.139-.048.148-.1.005-.032-.019-.07-.074-.116-.112-.094-.1-.127-.09-.143s0-.007,0-.01-.031-.014-.131-.033c-.053-.011-.1-.022-.138-.031a.772.772,0,0,0-.162-.029.126.126,0,0,0-.12.08c-.071.128-.141.128-.4.128-.232,0-.735.01-.851.013l-.12,0h-.069V8.346a.2.2,0,0,1,.017-.067.126.126,0,0,1,.121-.074l.024,0a1.857,1.857,0,0,0,.207.007c.1,0,.2,0,.251-.005h.056l-.037-.41h.007l.006,0h.045c.378-.021.653-.031.816-.031h.8l.038,0a.21.21,0,0,0,.236-.179,4.38,4.38,0,0,0,0-.489s0-.15-.242-.15H26.69c-.052.006-.147.009-.306.009-.185,0-.278,0-.356-.007h-.049c-.022,0-.229-.006-.407-.006a2.066,2.066,0,0,0-.23.006l-.032,0c-.053,0-.084-.023-.138-.071a.986.986,0,0,0-.274-.17,10.838,10.838,0,0,0-1.673-.329l-.016,0h-.1c-.066,0-.223.013-.269.131-.052.14.01.2.159.33l.023.02c.161.143.853.592,1.114.755l.007,0c.194.118.362.216.472.274.056.005.15.02.157.055,0,.016-.014.035-.052.056a.424.424,0,0,1-.2.038,2.4,2.4,0,0,1-.261-.02h-.018A1.935,1.935,0,0,0,24.017,8L23.97,8c-.022,0-.048,0-.077,0-.1,0-.232-.01-.347-.021l-.023,0H23.5l-.048,0c-.089-.008-.159-.014-.212-.014a.43.43,0,0,0-.054,0,.219.219,0,0,0-.167.094c-.024.027-.023.068,0,.149a.427.427,0,0,0,.355.275H23.4A1.118,1.118,0,0,1,23.825,8.369Zm-5.488-.614h-.012l-.01,0-.022.008-.023.01c-.1.036-.274.1-.257.185a.363.363,0,0,0,.281.242l.019,0a.479.479,0,0,0,.306-.257.515.515,0,0,1,.465-.278.552.552,0,0,1,.11-.007.587.587,0,0,1,.106.006h.014l.018,0h.032l.021,0h.01c.031,0,.053,0,.074,0a.274.274,0,0,0,.257-.151A.843.843,0,0,0,19.92,7c0-.111-.73-.14-.954-.147h-.009c-.354.023-.948.076-.944.164v.112a.686.686,0,0,1,.271.275c.018.046.054.055.1.055l.054,0h.028l.022,0a.127.127,0,0,1,.094.031.19.19,0,0,1,.031.142c-.008.117-.04.171-.1.171a.22.22,0,0,1-.069-.017l-.03-.009-.005,0-.009,0a.215.215,0,0,0-.065-.015Zm2.051-.477a.2.2,0,0,0-.184.083.252.252,0,0,0-.024.144v.031c.006.108.03.133.139.152a1.3,1.3,0,0,0,.169.013c.17,0,.266-.051.283-.153a.212.212,0,0,0-.088-.214.275.275,0,0,1-.034-.036c0-.006-.006-.009-.014-.009l-.012,0-.009,0-.013,0-.018,0-.043-.005-.014,0A.947.947,0,0,0,20.389,7.278Zm.645-2.4-.035,0c-.7.069-1.176.113-1.353.123a.462.462,0,0,0-.347.13.343.343,0,0,0-.056.278.422.422,0,0,1-.1.355.215.215,0,0,0-.042.067c-.011.051-.289.068-.513.083-.147.01-.262.019-.344.031a2.019,2.019,0,0,0-.7.276,1.781,1.781,0,0,1-.526.159l-.011,0-.008,0-.274.06a.377.377,0,0,0-.253.167.46.46,0,0,0-.037.328h.781v-.02c0-.029.01-.108.018-.181.02-.115.225-.13.4-.13h1.315a1.4,1.4,0,0,0,.577-.15l.013-.006.017-.008a.732.732,0,0,1,.16-.06.109.109,0,0,0,.1-.068.285.285,0,0,0-.1-.261.2.2,0,0,0-.157-.08.261.261,0,0,0-.151.057.89.89,0,0,1,.052-.274c.013-.026.081-.04.2-.04a2.952,2.952,0,0,1,.338.021h.005v-.2H20.4v.24H20.4a2.891,2.891,0,0,1,.759.129l.032.016.01.005.009.005.009,0,.014.007.022.011.005,0,.005,0,.005,0,.009,0a2.107,2.107,0,0,0,.353.158.444.444,0,0,0,.175.026c.029,0,.058,0,.085,0l.029,0h.052l.055,0a.52.52,0,0,1,.079.005.226.226,0,0,1,.146.08.165.165,0,0,0,.128.066.558.558,0,0,0,.158-.026l.013,0,.009,0,.011,0a.554.554,0,0,1,.137-.021c.088,0,.181-.068.276-.2a.287.287,0,0,0,.023-.207.027.027,0,0,0-.023-.016h-.659a.231.231,0,0,1-.187-.1.23.23,0,0,0-.186-.1h-.024l-.045,0a1.523,1.523,0,0,1-.445-.092l-.005,0a.473.473,0,0,1,.042-.278.1.1,0,0,1,.067-.054c.117-.019.376-.055.386-.056V4.879h-.9Zm-.161,1.293a.1.1,0,0,0-.044.012.1.1,0,0,0-.048.068A.192.192,0,0,0,20.8,6.4a.119.119,0,0,0,.1.058A.163.163,0,0,0,21,6.407a.128.128,0,0,0,.047-.1c0-.046-.049-.083-.094-.113l.1.067a.352.352,0,0,0-.117-.077l-.009,0,.007,0A.149.149,0,0,0,20.873,6.172Zm4.556-.134c-.056,0-.112,0-.167,0h-.067c-.075,0-.19,0-.239.061a.1.1,0,0,0-.018.086c.022.136.307.166.4.176a1.021,1.021,0,0,0,.11.005,2.072,2.072,0,0,0,.348-.04H25.8a1.677,1.677,0,0,1,.3-.04h.085l.112,0h.026l.113,0a1.065,1.065,0,0,0,.337-.052A.229.229,0,0,0,26.97,6c0-.068-.037-.1-.121-.1-.019,0-.041,0-.07,0l-.023,0h-.011l-.021,0a.463.463,0,0,1-.054,0,2.418,2.418,0,0,0-.419.057l-.039.006a2.714,2.714,0,0,1-.28.043,3.39,3.39,0,0,1-.385.02h-.119Zm-2.191-.5c-.081.019-.1.077-.12.185v.022c0,.066-.007.109.064.143a.408.408,0,0,0,.167.033.186.186,0,0,0,.038,0c.065-.014.069-.032.083-.086a.056.056,0,0,0,0-.014l0-.011c0-.008.005-.017.01-.036a.214.214,0,0,0,.014-.132c-.023-.053-.189-.1-.26-.1Zm1.022-.167a.435.435,0,0,0-.3.076.181.181,0,0,0-.047.127A.113.113,0,0,0,24,5.7a.664.664,0,0,0,.2.018H24.2c.037,0,.076,0,.113,0h.024c.51.028.938.042,1.239.042.333,0,.515-.018.526-.052a.418.418,0,0,0,.016-.064c.014-.063.022-.1.148-.14a.474.474,0,0,1,.157-.018c.067,0,.153.007.221.014h.025l.026,0,.023,0,.017,0,.017,0,.019,0,.036,0c.124.012.226.021.31.021h.018c.261-.014.388-.114.388-.306,0-.031,0-.07,0-.122.007-.143.016-.321-.062-.4a.161.161,0,0,0-.124-.049H27.33a.752.752,0,0,0-.531.165c-.106.105-.22.158-.548.158l-.1,0H26.1l-.046,0-.045,0H26l-.057,0h-.135c-.129,0-.267.01-.31.085a.8.8,0,0,0-.04.079l0,.005-.01.021c-.035.075-.063.135-.14.162a1.685,1.685,0,0,1-.5.038c-.13,0-.226.005-.319.011h-.046l-.029,0H24.4l-.079,0H24.26ZM19.7,4.217c.153,0,.31.039.31.33,0,.1.127.11.264.11l.049,0H20.4l.124,0a1,1,0,0,1,.109,0h.034c.146,0,.162-.081.179-.166s.038-.2.244-.207h.05c.213,0,.252.068.29.134s.069.113.226.113a.4.4,0,0,0,.316-.116.375.375,0,0,1,.25-.11l.086,0a3.316,3.316,0,0,1,.41.036h.009l.023,0,.036,0,.012,0,.027,0,.023,0,.014,0,.017,0,.017,0,.018,0,.014,0,.021,0h.01a1.78,1.78,0,0,0,.178.013,3.062,3.062,0,0,0,1.224-.17L24.39,4.2c.052-.019.092-.037.132-.055l.021-.009.029-.013.014-.006.02-.009a.926.926,0,0,1,.5-.1.142.142,0,0,0,.121-.042c.035-.047.012-.127-.009-.2a.467.467,0,0,1-.019-.081c-.013-.161-.583-.2-1.059-.2-.2,0-.372.006-.436.009h-.039a.945.945,0,0,1-.144-.019l-.05-.007-.015,0-.015,0-.01,0-.025,0-.018,0h-.009a8.892,8.892,0,0,0-1.083-.109,3.248,3.248,0,0,0-.714.115l-.01,0-.027.006-.006,0-.011,0a2.756,2.756,0,0,1-.564.092H19.939a2.22,2.22,0,0,0-1.247.419.2.2,0,0,0-.068.135c0,.1.125.143.383.143l.067,0h.055l.039,0,.038,0,.037,0,.037,0,.031,0,.023,0c.048,0,.1-.009.154-.015l.017,0,.015,0,.015,0,.021,0A1.294,1.294,0,0,1,19.7,4.217Zm5.711-3.6A.286.286,0,0,0,25.2.7a.319.319,0,0,0-.075.242s.044.374.226.388c.3.018.509.095.52.191s.054.167.264.167a.142.142,0,0,0,.108-.032.136.136,0,0,0,.017-.108V1.544c0-.05-.009-.1.04-.128a.278.278,0,0,1,.109-.022c.033,0,.067,0,.1.005h.014l.024,0h.016c.018,0,.036,0,.051,0,.06,0,.087-.015.09-.049,0-.017,0-.037.009-.062V1.287a.341.341,0,0,0-.021-.257.2.2,0,0,0-.145-.068c-.1-.007-.175-.016-.239-.027l-.041,0a2.625,2.625,0,0,0-.3-.027.34.34,0,0,0-.044,0H25.89l-.039,0A.138.138,0,0,1,25.7.831.32.32,0,0,0,25.412.618Zm-6.6,44.937h0a.054.054,0,0,1-.037-.021.629.629,0,0,1-.093-.335c.006-.11.068-.271.151-.271.051,0,.159.094.222.194.043.067.058.124.041.16a.593.593,0,0,1-.281.272Zm33.3-.569h0l-.005-.009a36.751,36.751,0,0,0-6.3-7.8,47.831,47.831,0,0,0-6.346-4.368c-.238-.089-.374-.81-.338-1.038a1.04,1.04,0,0,1,.182-.351l0-.006,0-.006.007-.011.011-.015.01-.014.006-.009a.946.946,0,0,0,.15-.287.664.664,0,0,0-.007-.185v-.024a.912.912,0,0,1,.01-.392.485.485,0,0,1,.116-.2l0-.005a.986.986,0,0,0,.217-.381,1.411,1.411,0,0,0,.017-.838.909.909,0,0,1,0-.562c.189-.515.962-2.449,1.694-4.274l.238-.595a15.358,15.358,0,0,0,.433-2.587l.011-.082a3.109,3.109,0,0,1,.2-.769l0-.009a6.479,6.479,0,0,0,.327-1.327,3.345,3.345,0,0,0,.012-.559,3.065,3.065,0,0,1,.022-.646c.079-.385.181-.829.252-1.134l.006-.027a13.338,13.338,0,0,0,.272-1.333A28.12,28.12,0,0,0,42.2,9.084l0-.008A24.359,24.359,0,0,0,39.146,4.43c-.17-.17-.522-.564-.711-.776l-.029-.032L38.36,3.57l-.041-.045-.057-.064-.017-.02-.021-.023-.107-.12,0,0c-.153-.172-.311-.347-.464-.518a2.931,2.931,0,0,0-.85-.67L36.788,2.1a1.577,1.577,0,0,1-.175-.1c-.046-.034-.122-.1-.211-.179l-.008-.007-.027-.023A8.549,8.549,0,0,0,35.336.976a1.927,1.927,0,0,0-.751-.142h-.007A1.846,1.846,0,0,1,33.885.71,3.867,3.867,0,0,0,32.911.25L32.858.236a1.759,1.759,0,0,1-.323-.193l-.007,0-.007,0-.014-.01-.006,0L32.476,0H52.121ZM11.921,30.6h-.007a.021.021,0,0,1-.018-.011c-.041-.055.017-.3.018-.3v-.366l-.014,0a1.766,1.766,0,0,1-.215.013.912.912,0,0,1-.184-.016c-.1-.023-.121-.113-.142-.193-.015-.058-.03-.113-.07-.122l-.025,0c-.086-.016-.175-.033-.175-.2a.237.237,0,0,1,.262-.238h.013a.059.059,0,0,0,.043-.022,1.151,1.151,0,0,0,.1-.631.413.413,0,0,1,.194-.361l.005,0,.008-.007a.833.833,0,0,0,.12-.123c.084-.108.026-.223-.02-.315a.443.443,0,0,1-.058-.165.936.936,0,0,1,.135-.465c.055-.055.015-.335-.111-.481a4.466,4.466,0,0,1-.179-1.174V23.975s0-.113.012-.113a.106.106,0,0,1,.011.04c.06.414.227,1.167.337,1.665l0,.007,0,.019.028.128.022.1.005.024c.03.139.059.27.072.344l.02.1a5.253,5.253,0,0,1,.143,1.119,1.3,1.3,0,0,1-.235.793.522.522,0,0,0-.13.418v.021c0,.009,0,.016,0,.024s0,.013,0,.018c0,.066.045.093.085.117s.078.043.078.086c0,.1-.08.157-.145.2s-.02.513-.019.517l.006,0a2.509,2.509,0,0,1,.34-.017.092.092,0,0,1,.089.05c.076.152-.128.589-.216.706a1.212,1.212,0,0,0-.093.153C11.981,30.565,11.959,30.6,11.921,30.6Zm-4.329-5.82a.953.953,0,0,1-.4-.094c-.172-.082-.343-.373-.308-.944a5.527,5.527,0,0,0-.3-1.7c-.072-.24-.134-.559-.2-.9-.056-.289-.115-.587-.185-.87-.046-.184-.1-.354-.158-.518a4.022,4.022,0,0,1-.193-.727,4.094,4.094,0,0,1-.049-.868,2.093,2.093,0,0,1,.413-1.013A2.317,2.317,0,0,1,7.637,16.1c.6,0,.946.674.949.68,0,.219-.124.27-.312.346a2.1,2.1,0,0,0-.286.135,1.559,1.559,0,0,0-.553.831c-.034.083-.07.169-.11.259a9.419,9.419,0,0,0-.456,2.271,5.733,5.733,0,0,0,.347,2.462c.23.384.575.793.759.793h.012a.108.108,0,0,0,.093-.069.628.628,0,0,0-.093-.482,3.373,3.373,0,0,1-.368-1.664,2.046,2.046,0,0,1,.572-1.48,1.075,1.075,0,0,1,.582-.37h.011a.363.363,0,0,1,.3.168.32.32,0,0,0,.159.128.188.188,0,0,0,.177-.03l.025-.014a.421.421,0,0,1,.222-.054.811.811,0,0,1,.087,0c.343.038.438.421.439.425v.007c-.013.18-.058.791-.091,1.065-.028.241-.171.287-.353.345a1.833,1.833,0,0,0-.174.062.269.269,0,0,0-.16.283.285.285,0,0,1-.059.2.415.415,0,0,1-.246.085c-.108.014-.21.028-.23.12a.283.283,0,0,0,.048.242.525.525,0,0,0,.428.145.206.206,0,0,1,.2.087c.089.158-.105.483-.107.487s-.09,0-.208,0a3.307,3.307,0,0,0-.741.058c-.117.039-.135.2-.151.343s-.027.239-.1.248c-.123.012-.144.069-.193.206-.016.045-.036.1-.064.164A.388.388,0,0,1,7.591,24.782ZM0,23.626H0V0H16.174a1.852,1.852,0,0,0-1.085.733c0,.1-.035.952-.6,1.239a.637.637,0,0,1-.247.067.551.551,0,0,1-.354-.162l-.029-.023a.7.7,0,0,0-.449-.184.871.871,0,0,0-.289.055,1.229,1.229,0,0,0-.713.7l-.005.013c-.1.187-.174.335-.332.335h-.05c-.331,0-.73.365-1.116.717l-.016.016-.007.007-.168.154A13.445,13.445,0,0,0,9.3,6.18c-.044.1-.114.224-.228.418a3.911,3.911,0,0,0-.59,1.391,7,7,0,0,0,.015.9v.035c.007.089.011.163.013.223A3.953,3.953,0,0,1,8.4,9.68l-.006.028-.006.026,0,.013-.006.028,0,.013-.012.051-.007.029L8.348,9.9l-.007.029-.007.028v.005a6.1,6.1,0,0,0-.162.751.605.605,0,0,1-.119.355c-.023.04-.05.087-.081.144a1.059,1.059,0,0,0-.044.469A3.3,3.3,0,0,1,7.819,12.8a1.562,1.562,0,0,0-.005,1.1.39.39,0,0,1-.08.321.647.647,0,0,1-.481.159,1.332,1.332,0,0,1-.147-.008H7.1l-.014,0c-.405.125-.867.255-1.3.365a2.481,2.481,0,0,0-1.924,1.8,4.782,4.782,0,0,0,.225,2.584,9.176,9.176,0,0,1,.371,2.031c.039,1.267-1.126,1.561-2.6,1.932l-.012,0-.02,0-.032.008-.025.006-.038.01c-.268.067-.767.192-1.234.344l-.134.044-.091.03-.036.012c-.084.026-.163.052-.235.077Zm10.143-5.554h0a.449.449,0,0,1,.019-.377.379.379,0,0,1,.245-.185l.063.266a.108.108,0,0,0-.071.05.2.2,0,0,0,0,.154l-.255.093Zm.575-.4h0a.462.462,0,0,1,.017-.38.354.354,0,0,1,.169-.158.679.679,0,0,1,.093.04l.047.2a.11.11,0,0,0-.073.052.2.2,0,0,0,0,.152l-.254.094ZM13.966,14a.088.088,0,0,1-.065-.032c-.025-.026-.014-.081,0-.135l0-.019a.308.308,0,0,0,.007-.043l0-.036a.648.648,0,0,1,.065-.272.369.369,0,0,1,.262-.161.089.089,0,0,1,.045.009c.089.013.147.125.164.2.023.1-.007.157-.1.182l-.023.005-.022.005c-.087.019-.107.023-.163.13C14.108,13.89,14.038,14,13.966,14Zm-1.83-5.17h0a.443.443,0,0,1,.018-.38.361.361,0,0,1,.244-.185l.063.265a.116.116,0,0,0-.072.053.2.2,0,0,0,0,.151l-.252.1Zm-.376-.392a.02.02,0,0,1-.015-.005l-.01-.009-.011-.01L11.718,8.4l-.009-.009a.508.508,0,0,0-.039-.038.207.207,0,0,1-.015-.119c.04-.1.075-.205.1-.271l0-.006.016-.047,0-.014.009-.027.005-.015c.021-.065.044-.129.078-.221a.267.267,0,0,1,.238-.171.14.14,0,0,1,.126.063.218.218,0,0,1-.026.211c-.049.094-.127.226-.15.265l-.023.039c-.076.128-.138.236-.2.353A.1.1,0,0,1,11.76,8.435Z" transform="translate(0 0.306)" fill="#e55c17"></path>
      </g>
    </g>
  </g>
</svg>