<svg id="visual" viewBox="0 0 900 600" width="900" height="600" xmlns="http://www.w3.org/2000/svg" xmlns:xlink="http://www.w3.org/1999/xlink" version="1.1"><g stroke-width="1" stroke-linejoin="bevel"><path d="M471 304L423 216L399 296Z" fill="#f2f2f2" stroke="#f2f2f2"></path><path d="M471 304L522 179L423 216Z" fill="#f8f8f8" stroke="#f8f8f8"></path><path d="M423 216L310 261L399 296Z" fill="#f4f4f4" stroke="#f4f4f4"></path><path d="M471 304L570 293L522 179Z" fill="#fbfbfb" stroke="#fbfbfb"></path><path d="M423 216L319 203L310 261Z" fill="#fcfcfc" stroke="#fcfcfc"></path><path d="M291 133L319 203L363 70Z" fill="#f4f4f4" stroke="#f4f4f4"></path><path d="M310 261L374 385L399 296Z" fill="#f5f5f5" stroke="#f5f5f5"></path><path d="M399 296L374 385L471 304Z" fill="#f2f2f2" stroke="#f2f2f2"></path><path d="M471 304L512 439L570 293Z" fill="#f8f8f8" stroke="#f8f8f8"></path><path d="M570 293L590 206L522 179Z" fill="#f4f4f4" stroke="#f4f4f4"></path><path d="M310 261L313 399L374 385Z" fill="#f9f9f9" stroke="#f9f9f9"></path><path d="M438 492L512 439L374 385Z" fill="#f7f7f7" stroke="#f7f7f7"></path><path d="M374 385L512 439L471 304Z" fill="#f8f8f8" stroke="#f8f8f8"></path><path d="M363 70L319 203L423 216Z" fill="#ffffff" stroke="#ffffff"></path><path d="M319 203L224 268L310 261Z" fill="#f7f7f7" stroke="#f7f7f7"></path><path d="M310 261L220 382L313 399Z" fill="#ffffff" stroke="#ffffff"></path><path d="M625 120L500 70L522 179Z" fill="#f4f4f4" stroke="#f4f4f4"></path><path d="M522 179L500 70L423 216Z" fill="#fefefe" stroke="#fefefe"></path><path d="M500 70L363 70L423 216Z" fill="#f4f4f4" stroke="#f4f4f4"></path><path d="M512 439L586 421L570 293Z" fill="#f4f4f4" stroke="#f4f4f4"></path><path d="M570 293L679 263L590 206Z" fill="#f7f7f7" stroke="#f7f7f7"></path><path d="M195 174L224 268L319 203Z" fill="#f2f2f2" stroke="#f2f2f2"></path><path d="M313 399L438 492L374 385Z" fill="#f4f4f4" stroke="#f4f4f4"></path><path d="M512 439L596 490L586 421Z" fill="#fefefe" stroke="#fefefe"></path><path d="M672 203L625 120L590 206Z" fill="#fefefe" stroke="#fefefe"></path><path d="M590 206L625 120L522 179Z" fill="#f1f1f1" stroke="#f1f1f1"></path><path d="M586 421L679 263L570 293Z" fill="#fbfbfb" stroke="#fbfbfb"></path><path d="M679 263L672 203L590 206Z" fill="#f8f8f8" stroke="#f8f8f8"></path><path d="M224 268L220 382L310 261Z" fill="#f9f9f9" stroke="#f9f9f9"></path><path d="M313 399L261 478L438 492Z" fill="#f5f5f5" stroke="#f5f5f5"></path><path d="M226 60L195 174L291 133Z" fill="#f4f4f4" stroke="#f4f4f4"></path><path d="M291 133L195 174L319 203Z" fill="#f2f2f2" stroke="#f2f2f2"></path><path d="M224 268L108 322L220 382Z" fill="#f8f8f8" stroke="#f8f8f8"></path><path d="M632 0L487 0L500 70Z" fill="#f1f1f1" stroke="#f1f1f1"></path><path d="M500 70L378 0L363 70Z" fill="#f9f9f9" stroke="#f9f9f9"></path><path d="M487 0L378 0L500 70Z" fill="#f2f2f2" stroke="#f2f2f2"></path><path d="M306 0L226 60L291 133Z" fill="#f9f9f9" stroke="#f9f9f9"></path><path d="M438 492L516 526L512 439Z" fill="#fcfcfc" stroke="#fcfcfc"></path><path d="M516 526L596 490L512 439Z" fill="#f4f4f4" stroke="#f4f4f4"></path><path d="M586 421L734 438L679 263Z" fill="#f7f7f7" stroke="#f7f7f7"></path><path d="M220 382L261 478L313 399Z" fill="#fefefe" stroke="#fefefe"></path><path d="M438 492L419 600L516 526Z" fill="#f8f8f8" stroke="#f8f8f8"></path><path d="M306 0L291 133L363 70Z" fill="#f1f1f1" stroke="#f1f1f1"></path><path d="M378 0L306 0L363 70Z" fill="#f5f5f5" stroke="#f5f5f5"></path><path d="M672 203L726 138L625 120Z" fill="#fcfcfc" stroke="#fcfcfc"></path><path d="M625 120L632 0L500 70Z" fill="#f2f2f2" stroke="#f2f2f2"></path><path d="M787 183L726 138L672 203Z" fill="#fbfbfb" stroke="#fbfbfb"></path><path d="M787 183L672 203L679 263Z" fill="#fefefe" stroke="#fefefe"></path><path d="M70 102L126 187L195 174Z" fill="#f9f9f9" stroke="#f9f9f9"></path><path d="M195 174L126 187L224 268Z" fill="#ffffff" stroke="#ffffff"></path><path d="M126 437L215 528L261 478Z" fill="#f7f7f7" stroke="#f7f7f7"></path><path d="M704 0L632 0L625 120Z" fill="#f5f5f5" stroke="#f5f5f5"></path><path d="M126 187L108 322L224 268Z" fill="#f8f8f8" stroke="#f8f8f8"></path><path d="M305 600L419 600L438 492Z" fill="#ffffff" stroke="#ffffff"></path><path d="M516 526L588 600L596 490Z" fill="#f8f8f8" stroke="#f8f8f8"></path><path d="M306 0L228 0L226 60Z" fill="#fbfbfb" stroke="#fbfbfb"></path><path d="M226 60L70 102L195 174Z" fill="#fcfcfc" stroke="#fcfcfc"></path><path d="M735 475L734 438L596 490Z" fill="#fefefe" stroke="#fefefe"></path><path d="M596 490L734 438L586 421Z" fill="#fcfcfc" stroke="#fcfcfc"></path><path d="M126 437L261 478L220 382Z" fill="#ffffff" stroke="#ffffff"></path><path d="M261 478L305 600L438 492Z" fill="#f5f5f5" stroke="#f5f5f5"></path><path d="M419 600L527 600L516 526Z" fill="#f8f8f8" stroke="#f8f8f8"></path><path d="M108 322L126 437L220 382Z" fill="#f4f4f4" stroke="#f4f4f4"></path><path d="M823 298L787 183L679 263Z" fill="#f5f5f5" stroke="#f5f5f5"></path><path d="M726 138L704 0L625 120Z" fill="#f8f8f8" stroke="#f8f8f8"></path><path d="M215 528L305 600L261 478Z" fill="#f4f4f4" stroke="#f4f4f4"></path><path d="M667 600L735 475L596 490Z" fill="#f2f2f2" stroke="#f2f2f2"></path><path d="M804 403L823 298L679 263Z" fill="#f7f7f7" stroke="#f7f7f7"></path><path d="M527 600L588 600L516 526Z" fill="#f9f9f9" stroke="#f9f9f9"></path><path d="M797 76L704 0L726 138Z" fill="#fefefe" stroke="#fefefe"></path><path d="M804 403L679 263L734 438Z" fill="#f7f7f7" stroke="#f7f7f7"></path><path d="M735 475L804 403L734 438Z" fill="#f7f7f7" stroke="#f7f7f7"></path><path d="M64 0L70 102L226 60Z" fill="#fbfbfb" stroke="#fbfbfb"></path><path d="M126 187L0 271L108 322Z" fill="#f4f4f4" stroke="#f4f4f4"></path><path d="M0 526L123 531L126 437Z" fill="#f4f4f4" stroke="#f4f4f4"></path><path d="M787 183L797 76L726 138Z" fill="#f8f8f8" stroke="#f8f8f8"></path><path d="M900 105L797 76L787 183Z" fill="#f2f2f2" stroke="#f2f2f2"></path><path d="M588 600L667 600L596 490Z" fill="#f8f8f8" stroke="#f8f8f8"></path><path d="M735 475L831 510L804 403Z" fill="#fefefe" stroke="#fefefe"></path><path d="M123 531L203 600L215 528Z" fill="#fbfbfb" stroke="#fbfbfb"></path><path d="M215 528L203 600L305 600Z" fill="#fbfbfb" stroke="#fbfbfb"></path><path d="M126 437L123 531L215 528Z" fill="#f8f8f8" stroke="#f8f8f8"></path><path d="M0 409L126 437L108 322Z" fill="#fefefe" stroke="#fefefe"></path><path d="M0 224L0 271L126 187Z" fill="#f4f4f4" stroke="#f4f4f4"></path><path d="M70 102L0 224L126 187Z" fill="#fefefe" stroke="#fefefe"></path><path d="M228 0L64 0L226 60Z" fill="#fbfbfb" stroke="#fbfbfb"></path><path d="M70 102L0 73L0 224Z" fill="#f7f7f7" stroke="#f7f7f7"></path><path d="M900 393L900 268L823 298Z" fill="#f1f1f1" stroke="#f1f1f1"></path><path d="M823 298L900 225L787 183Z" fill="#f4f4f4" stroke="#f4f4f4"></path><path d="M900 393L823 298L804 403Z" fill="#fcfcfc" stroke="#fcfcfc"></path><path d="M0 271L0 409L108 322Z" fill="#f1f1f1" stroke="#f1f1f1"></path><path d="M794 600L831 510L735 475Z" fill="#f8f8f8" stroke="#f8f8f8"></path><path d="M900 268L900 225L823 298Z" fill="#f5f5f5" stroke="#f5f5f5"></path><path d="M0 526L104 600L123 531Z" fill="#f5f5f5" stroke="#f5f5f5"></path><path d="M123 531L104 600L203 600Z" fill="#f1f1f1" stroke="#f1f1f1"></path><path d="M900 105L834 0L797 76Z" fill="#f2f2f2" stroke="#f2f2f2"></path><path d="M797 76L834 0L704 0Z" fill="#f9f9f9" stroke="#f9f9f9"></path><path d="M900 482L900 393L804 403Z" fill="#f2f2f2" stroke="#f2f2f2"></path><path d="M64 0L0 73L70 102Z" fill="#f2f2f2" stroke="#f2f2f2"></path><path d="M900 225L900 105L787 183Z" fill="#ffffff" stroke="#ffffff"></path><path d="M667 600L794 600L735 475Z" fill="#f8f8f8" stroke="#f8f8f8"></path><path d="M831 510L900 482L804 403Z" fill="#f7f7f7" stroke="#f7f7f7"></path><path d="M900 600L900 482L831 510Z" fill="#f7f7f7" stroke="#f7f7f7"></path><path d="M0 409L0 526L126 437Z" fill="#f8f8f8" stroke="#f8f8f8"></path><path d="M64 0L0 0L0 73Z" fill="#f1f1f1" stroke="#f1f1f1"></path><path d="M900 105L900 0L834 0Z" fill="#fbfbfb" stroke="#fbfbfb"></path><path d="M0 526L0 600L104 600Z" fill="#f7f7f7" stroke="#f7f7f7"></path><path d="M794 600L900 600L831 510Z" fill="#fefefe" stroke="#fefefe"></path></g></svg>